G04*
G04 #@! TF.GenerationSoftware,Altium Limited,Altium Designer,24.5.1 (21)*
G04*
G04 Layer_Color=65535*
%FSLAX44Y44*%
%MOMM*%
G71*
G04*
G04 #@! TF.SameCoordinates,4CF24129-FD56-4E2D-9210-4E3AEFEF1F0E*
G04*
G04*
G04 #@! TF.FilePolarity,Positive*
G04*
G01*
G75*
%ADD10C,0.2540*%
G36*
X276422Y-42267D02*
X206422D01*
Y-8679D01*
X276422D01*
Y-42267D01*
D02*
G37*
%LPC*%
G36*
X249527Y-10767D02*
X248115D01*
Y-10828D01*
X247869D01*
Y-10889D01*
X247624D01*
Y-10951D01*
X247501D01*
Y-11012D01*
X247317D01*
Y-11073D01*
X247194D01*
Y-11135D01*
X247071D01*
Y-11196D01*
X246948D01*
Y-11258D01*
X246887D01*
Y-11319D01*
X246764D01*
Y-11380D01*
X246703D01*
Y-11442D01*
X246580D01*
Y-11503D01*
X246519D01*
Y-11565D01*
X246457D01*
Y-11626D01*
X246396D01*
Y-11688D01*
X246334D01*
Y-11749D01*
X246273D01*
Y-11810D01*
X246212D01*
Y-11872D01*
X246150D01*
Y-11933D01*
X246089D01*
Y-11995D01*
X246027D01*
Y-12056D01*
X245966D01*
Y-12117D01*
X245905D01*
Y-12179D01*
X245843D01*
Y-12240D01*
X245782D01*
Y-12363D01*
X245720D01*
Y-12486D01*
X245659D01*
Y-12547D01*
X245597D01*
Y-12670D01*
X245536D01*
Y-12793D01*
X245475D01*
Y-12977D01*
X245413D01*
Y-13038D01*
X245352D01*
Y-13161D01*
X245291D01*
Y-13223D01*
X238536D01*
Y-13284D01*
X238229D01*
Y-13345D01*
X237983D01*
Y-13407D01*
X237738D01*
Y-13468D01*
X237554D01*
Y-13530D01*
X237308D01*
Y-13591D01*
X237185D01*
Y-13652D01*
X237062D01*
Y-13714D01*
X236878D01*
Y-13775D01*
X236755D01*
Y-13837D01*
X236633D01*
Y-13898D01*
X236571D01*
Y-13959D01*
X236387D01*
Y-14021D01*
X236264D01*
Y-14082D01*
X236203D01*
Y-14144D01*
X236080D01*
Y-14205D01*
X236019D01*
Y-14267D01*
X235834D01*
Y-14328D01*
X235773D01*
Y-14389D01*
X235712D01*
Y-14451D01*
X235589D01*
Y-14512D01*
X235527D01*
Y-14574D01*
X235405D01*
Y-14635D01*
X235343D01*
Y-14696D01*
X235282D01*
Y-14758D01*
X235159D01*
Y-14819D01*
X235098D01*
Y-14880D01*
X235036D01*
Y-14942D01*
X234975D01*
Y-15003D01*
X234913D01*
Y-15065D01*
X234852D01*
Y-15126D01*
X234790D01*
Y-15187D01*
X234729D01*
Y-15249D01*
X234668D01*
Y-15310D01*
X234606D01*
Y-15372D01*
X234545D01*
Y-15433D01*
X234484D01*
Y-15495D01*
X234422D01*
Y-15556D01*
X234361D01*
Y-15617D01*
X234299D01*
Y-15679D01*
X234238D01*
Y-15740D01*
X234177D01*
Y-15802D01*
X234115D01*
Y-15863D01*
X234054D01*
Y-15924D01*
X233992D01*
Y-15986D01*
X233931D01*
Y-16047D01*
X233869D01*
Y-16109D01*
X233808D01*
Y-16231D01*
X233685D01*
Y-16354D01*
X233624D01*
Y-16416D01*
X233562D01*
Y-16477D01*
X233501D01*
Y-16538D01*
X233440D01*
Y-16600D01*
X233378D01*
Y-16661D01*
X233317D01*
Y-16723D01*
X233255D01*
Y-16784D01*
X233194D01*
Y-16845D01*
X233133D01*
Y-16907D01*
X233071D01*
Y-16968D01*
X233010D01*
Y-17030D01*
X232948D01*
Y-17091D01*
X232887D01*
Y-17152D01*
X232826D01*
Y-17275D01*
X232764D01*
Y-17337D01*
X232703D01*
Y-17398D01*
X232641D01*
Y-17459D01*
X232580D01*
Y-17521D01*
X232519D01*
Y-17582D01*
X232457D01*
Y-17644D01*
X232396D01*
Y-17705D01*
X232334D01*
Y-17766D01*
X232273D01*
Y-17828D01*
X232212D01*
Y-17889D01*
X232150D01*
Y-17951D01*
X232089D01*
Y-18012D01*
X232027D01*
Y-18074D01*
X231966D01*
Y-18135D01*
X231905D01*
Y-18196D01*
X231843D01*
Y-18258D01*
X231782D01*
Y-18381D01*
X231659D01*
Y-18503D01*
X231597D01*
Y-18565D01*
X231536D01*
Y-18626D01*
X231475D01*
Y-18687D01*
X231413D01*
Y-18749D01*
X231352D01*
Y-18810D01*
X231290D01*
Y-18872D01*
X231229D01*
Y-18933D01*
X231168D01*
Y-18995D01*
X231106D01*
Y-19056D01*
X231045D01*
Y-19117D01*
X230984D01*
Y-19179D01*
X230922D01*
Y-19240D01*
X230861D01*
Y-19302D01*
X230799D01*
Y-19363D01*
X230738D01*
Y-19424D01*
X230676D01*
Y-19486D01*
X230615D01*
Y-19547D01*
X230554D01*
Y-19670D01*
X230492D01*
Y-19731D01*
X230431D01*
Y-19793D01*
X230369D01*
Y-19854D01*
X230308D01*
Y-19916D01*
X230247D01*
Y-19977D01*
X230185D01*
Y-20038D01*
X230124D01*
Y-20100D01*
X230063D01*
Y-20161D01*
X230001D01*
Y-20223D01*
X229940D01*
Y-20284D01*
X229878D01*
Y-20345D01*
X229817D01*
Y-20407D01*
X229755D01*
Y-20468D01*
X229694D01*
Y-20591D01*
X229571D01*
Y-20714D01*
X229510D01*
Y-20775D01*
X229448D01*
Y-20837D01*
X229387D01*
Y-20898D01*
X229326D01*
Y-20959D01*
X229264D01*
Y-21021D01*
X229203D01*
Y-21082D01*
X229141D01*
Y-21144D01*
X229080D01*
Y-21205D01*
X229019D01*
Y-21267D01*
X228957D01*
Y-21328D01*
X228896D01*
Y-21389D01*
X228834D01*
Y-21451D01*
X228773D01*
Y-21512D01*
X228712D01*
Y-21574D01*
X228650D01*
Y-21635D01*
X228589D01*
Y-21696D01*
X228527D01*
Y-21758D01*
X228466D01*
Y-21819D01*
X228405D01*
Y-21881D01*
X228343D01*
Y-21942D01*
X228282D01*
Y-22065D01*
X228220D01*
Y-22126D01*
X228159D01*
Y-22188D01*
X228097D01*
Y-22249D01*
X228036D01*
Y-22310D01*
X227975D01*
Y-22372D01*
X227913D01*
Y-22433D01*
X227852D01*
Y-22494D01*
X227791D01*
Y-22556D01*
X227729D01*
Y-22617D01*
X227668D01*
Y-22679D01*
X227606D01*
Y-22740D01*
X227545D01*
Y-22802D01*
X227484D01*
Y-22924D01*
X227361D01*
Y-23047D01*
X227299D01*
Y-23109D01*
X227238D01*
Y-23170D01*
X227176D01*
Y-23231D01*
X227115D01*
Y-23293D01*
X227054D01*
Y-23354D01*
X226992D01*
Y-23416D01*
X226870D01*
Y-23477D01*
X226808D01*
Y-23538D01*
X226747D01*
Y-23600D01*
X226624D01*
Y-23661D01*
X226562D01*
Y-23723D01*
X226440D01*
Y-23784D01*
X226317D01*
Y-23845D01*
X226194D01*
Y-23907D01*
X226071D01*
Y-23968D01*
X225887D01*
Y-24030D01*
X225703D01*
Y-24091D01*
X225580D01*
Y-24153D01*
X225212D01*
Y-24214D01*
X224905D01*
Y-24275D01*
X220483D01*
Y-24214D01*
X220422D01*
Y-24030D01*
X220361D01*
Y-23845D01*
X220299D01*
Y-23600D01*
X220238D01*
Y-23416D01*
X220177D01*
Y-23293D01*
X220115D01*
Y-23109D01*
X220054D01*
Y-22986D01*
X219992D01*
Y-22802D01*
X219931D01*
Y-22679D01*
X219869D01*
Y-22617D01*
X219808D01*
Y-22494D01*
X219747D01*
Y-22372D01*
X219685D01*
Y-22249D01*
X219624D01*
Y-22188D01*
X219562D01*
Y-22065D01*
X219501D01*
Y-22003D01*
X219440D01*
Y-21881D01*
X219378D01*
Y-21819D01*
X219317D01*
Y-21758D01*
X219255D01*
Y-21635D01*
X219194D01*
Y-21574D01*
X219133D01*
Y-21512D01*
X219071D01*
Y-21389D01*
X218948D01*
Y-21267D01*
X218887D01*
Y-21205D01*
X218826D01*
Y-21144D01*
X218764D01*
Y-21082D01*
X218703D01*
Y-21021D01*
X218641D01*
Y-20959D01*
X218580D01*
Y-20898D01*
X218457D01*
Y-20837D01*
X218396D01*
Y-20775D01*
X218334D01*
Y-20714D01*
X218273D01*
Y-20652D01*
X218212D01*
Y-20591D01*
X218089D01*
Y-20530D01*
X218027D01*
Y-20468D01*
X217904D01*
Y-20407D01*
X217843D01*
Y-20345D01*
X217782D01*
Y-20284D01*
X217659D01*
Y-20223D01*
X217598D01*
Y-20161D01*
X217413D01*
Y-20100D01*
X217352D01*
Y-20038D01*
X217229D01*
Y-19977D01*
X217106D01*
Y-19916D01*
X216984D01*
Y-19854D01*
X216799D01*
Y-19793D01*
X216738D01*
Y-19731D01*
X216492D01*
Y-19670D01*
X216369D01*
Y-19609D01*
X216185D01*
Y-19547D01*
X215940D01*
Y-19486D01*
X215755D01*
Y-19424D01*
X215264D01*
Y-19363D01*
X214896D01*
Y-19302D01*
X213913D01*
Y-19363D01*
X213545D01*
Y-19424D01*
X213054D01*
Y-19486D01*
X212869D01*
Y-19547D01*
X212624D01*
Y-19609D01*
X212440D01*
Y-19670D01*
X212317D01*
Y-19731D01*
X212071D01*
Y-19793D01*
X212010D01*
Y-19854D01*
X211826D01*
Y-19916D01*
X211703D01*
Y-19977D01*
X211580D01*
Y-20038D01*
X211457D01*
Y-20100D01*
X211396D01*
Y-20161D01*
X211273D01*
Y-20223D01*
X211150D01*
Y-20284D01*
X211027D01*
Y-20345D01*
X210966D01*
Y-20407D01*
X210905D01*
Y-20468D01*
X210782D01*
Y-20530D01*
X210720D01*
Y-20591D01*
X210597D01*
Y-20652D01*
X210536D01*
Y-20714D01*
X210475D01*
Y-20775D01*
X210413D01*
Y-20837D01*
X210352D01*
Y-20898D01*
X210291D01*
Y-20959D01*
X210229D01*
Y-21021D01*
X210106D01*
Y-21082D01*
X210045D01*
Y-21144D01*
X209984D01*
Y-21205D01*
X209922D01*
Y-21328D01*
X209861D01*
Y-21389D01*
X209799D01*
Y-21451D01*
X209738D01*
Y-21512D01*
X209676D01*
Y-21574D01*
X209615D01*
Y-21635D01*
X209554D01*
Y-21758D01*
X209492D01*
Y-21819D01*
X209431D01*
Y-21881D01*
X209370D01*
Y-22003D01*
X209308D01*
Y-22065D01*
X209247D01*
Y-22188D01*
X209185D01*
Y-22249D01*
X209124D01*
Y-22372D01*
X209062D01*
Y-22494D01*
X209001D01*
Y-22556D01*
X208940D01*
Y-22740D01*
X208878D01*
Y-22863D01*
X208817D01*
Y-22924D01*
X208755D01*
Y-23109D01*
X208694D01*
Y-23231D01*
X208633D01*
Y-23477D01*
X208571D01*
Y-23600D01*
X208510D01*
Y-23845D01*
X208448D01*
Y-24091D01*
X208387D01*
Y-24275D01*
X208326D01*
Y-24828D01*
X208264D01*
Y-26117D01*
X208326D01*
Y-26670D01*
X208387D01*
Y-26854D01*
X208448D01*
Y-27100D01*
X208510D01*
Y-27345D01*
X208571D01*
Y-27468D01*
X208633D01*
Y-27714D01*
X208694D01*
Y-27837D01*
X208755D01*
Y-28021D01*
X208817D01*
Y-28082D01*
X208878D01*
Y-28205D01*
X208940D01*
Y-28389D01*
X209001D01*
Y-28451D01*
X209062D01*
Y-28574D01*
X209124D01*
Y-28696D01*
X209185D01*
Y-28758D01*
X209247D01*
Y-28881D01*
X209308D01*
Y-28942D01*
X209370D01*
Y-29065D01*
X209431D01*
Y-29126D01*
X209492D01*
Y-29188D01*
X209554D01*
Y-29310D01*
X209615D01*
Y-29372D01*
X209676D01*
Y-29433D01*
X209738D01*
Y-29495D01*
X209799D01*
Y-29556D01*
X209861D01*
Y-29617D01*
X209922D01*
Y-29679D01*
X209984D01*
Y-29802D01*
X210045D01*
Y-29863D01*
X210106D01*
Y-29924D01*
X210229D01*
Y-29986D01*
X210291D01*
Y-30047D01*
X210352D01*
Y-30109D01*
X210413D01*
Y-30170D01*
X210475D01*
Y-30231D01*
X210536D01*
Y-30293D01*
X210597D01*
Y-30354D01*
X210720D01*
Y-30416D01*
X210782D01*
Y-30477D01*
X210905D01*
Y-30538D01*
X210966D01*
Y-30600D01*
X211027D01*
Y-30661D01*
X211150D01*
Y-30723D01*
X211273D01*
Y-30784D01*
X211396D01*
Y-30845D01*
X211457D01*
Y-30907D01*
X211580D01*
Y-30968D01*
X211703D01*
Y-31030D01*
X211826D01*
Y-31091D01*
X212010D01*
Y-31152D01*
X212071D01*
Y-31214D01*
X212317D01*
Y-31275D01*
X212440D01*
Y-31337D01*
X212624D01*
Y-31398D01*
X212869D01*
Y-31460D01*
X213054D01*
Y-31521D01*
X213545D01*
Y-31582D01*
X213913D01*
Y-31644D01*
X214896D01*
Y-31582D01*
X215264D01*
Y-31521D01*
X215694D01*
Y-31460D01*
X215940D01*
Y-31398D01*
X216185D01*
Y-31337D01*
X216369D01*
Y-31275D01*
X216492D01*
Y-31214D01*
X216738D01*
Y-31152D01*
X216799D01*
Y-31091D01*
X216984D01*
Y-31030D01*
X217106D01*
Y-30968D01*
X217229D01*
Y-30907D01*
X217352D01*
Y-30845D01*
X217413D01*
Y-30784D01*
X217598D01*
Y-30723D01*
X217659D01*
Y-30661D01*
X217782D01*
Y-30600D01*
X217843D01*
Y-30538D01*
X217904D01*
Y-30477D01*
X218027D01*
Y-30416D01*
X218089D01*
Y-30354D01*
X218212D01*
Y-30293D01*
X218273D01*
Y-30231D01*
X218334D01*
Y-30170D01*
X218396D01*
Y-30109D01*
X218457D01*
Y-30047D01*
X218580D01*
Y-29986D01*
X218641D01*
Y-29924D01*
X218703D01*
Y-29863D01*
X218764D01*
Y-29802D01*
X218826D01*
Y-29740D01*
X218887D01*
Y-29679D01*
X218948D01*
Y-29556D01*
X219010D01*
Y-29495D01*
X219071D01*
Y-29433D01*
X219133D01*
Y-29372D01*
X219194D01*
Y-29310D01*
X219255D01*
Y-29188D01*
X219317D01*
Y-29126D01*
X219378D01*
Y-29065D01*
X219440D01*
Y-28942D01*
X219501D01*
Y-28881D01*
X219562D01*
Y-28758D01*
X219624D01*
Y-28696D01*
X219685D01*
Y-28574D01*
X219747D01*
Y-28451D01*
X219808D01*
Y-28328D01*
X219869D01*
Y-28205D01*
X219931D01*
Y-28144D01*
X219992D01*
Y-27959D01*
X220054D01*
Y-27837D01*
X220115D01*
Y-27652D01*
X220177D01*
Y-27530D01*
X220238D01*
Y-27345D01*
X220299D01*
Y-27100D01*
X220361D01*
Y-26916D01*
X220422D01*
Y-26731D01*
X220483D01*
Y-26670D01*
X234177D01*
Y-26731D01*
X234484D01*
Y-26793D01*
X234790D01*
Y-26854D01*
X234975D01*
Y-26916D01*
X235159D01*
Y-26977D01*
X235282D01*
Y-27038D01*
X235405D01*
Y-27100D01*
X235589D01*
Y-27161D01*
X235650D01*
Y-27223D01*
X235773D01*
Y-27284D01*
X235834D01*
Y-27345D01*
X235957D01*
Y-27407D01*
X236019D01*
Y-27468D01*
X236080D01*
Y-27530D01*
X236203D01*
Y-27591D01*
X236264D01*
Y-27652D01*
X236326D01*
Y-27714D01*
X236387D01*
Y-27775D01*
X236448D01*
Y-27837D01*
X236510D01*
Y-27959D01*
X236633D01*
Y-28082D01*
X236694D01*
Y-28144D01*
X236755D01*
Y-28205D01*
X236817D01*
Y-28266D01*
X236878D01*
Y-28328D01*
X236940D01*
Y-28389D01*
X237001D01*
Y-28451D01*
X237062D01*
Y-28512D01*
X237124D01*
Y-28574D01*
X237185D01*
Y-28635D01*
X237247D01*
Y-28696D01*
X237308D01*
Y-28758D01*
X237369D01*
Y-28819D01*
X237431D01*
Y-28881D01*
X237492D01*
Y-28942D01*
X237554D01*
Y-29003D01*
X237615D01*
Y-29065D01*
X237677D01*
Y-29126D01*
X237738D01*
Y-29188D01*
X237799D01*
Y-29310D01*
X237922D01*
Y-29433D01*
X237983D01*
Y-29495D01*
X238045D01*
Y-29556D01*
X238106D01*
Y-29617D01*
X238168D01*
Y-29679D01*
X238229D01*
Y-29740D01*
X238291D01*
Y-29802D01*
X238352D01*
Y-29863D01*
X238413D01*
Y-29924D01*
X238475D01*
Y-29986D01*
X238536D01*
Y-30047D01*
X238598D01*
Y-30109D01*
X238659D01*
Y-30170D01*
X238720D01*
Y-30293D01*
X238782D01*
Y-30354D01*
X238843D01*
Y-30416D01*
X238905D01*
Y-30477D01*
X238966D01*
Y-30538D01*
X239027D01*
Y-30600D01*
X239089D01*
Y-30661D01*
X239150D01*
Y-30723D01*
X239212D01*
Y-30784D01*
X239273D01*
Y-30845D01*
X239334D01*
Y-30907D01*
X239396D01*
Y-30968D01*
X239457D01*
Y-31030D01*
X239519D01*
Y-31091D01*
X239580D01*
Y-31152D01*
X239641D01*
Y-31214D01*
X239703D01*
Y-31275D01*
X239764D01*
Y-31337D01*
X239826D01*
Y-31398D01*
X239887D01*
Y-31521D01*
X240010D01*
Y-31644D01*
X240071D01*
Y-31705D01*
X240133D01*
Y-31767D01*
X240194D01*
Y-31828D01*
X240255D01*
Y-31889D01*
X240317D01*
Y-31951D01*
X240378D01*
Y-32012D01*
X240440D01*
Y-32074D01*
X240501D01*
Y-32135D01*
X240562D01*
Y-32196D01*
X240624D01*
Y-32258D01*
X240685D01*
Y-32319D01*
X240747D01*
Y-32380D01*
X240808D01*
Y-32442D01*
X240870D01*
Y-32503D01*
X240931D01*
Y-32565D01*
X240992D01*
Y-32626D01*
X241054D01*
Y-32749D01*
X241115D01*
Y-32810D01*
X241176D01*
Y-32872D01*
X241238D01*
Y-32933D01*
X241299D01*
Y-32994D01*
X241361D01*
Y-33056D01*
X241422D01*
Y-33117D01*
X241483D01*
Y-33179D01*
X241545D01*
Y-33240D01*
X241606D01*
Y-33302D01*
X241668D01*
Y-33363D01*
X241729D01*
Y-33424D01*
X241791D01*
Y-33486D01*
X241852D01*
Y-33547D01*
X241913D01*
Y-33609D01*
X241975D01*
Y-33731D01*
X242097D01*
Y-33854D01*
X242159D01*
Y-33916D01*
X242220D01*
Y-33977D01*
X242282D01*
Y-34038D01*
X242343D01*
Y-34100D01*
X242404D01*
Y-34161D01*
X242466D01*
Y-34223D01*
X242527D01*
Y-34284D01*
X242589D01*
Y-34345D01*
X242650D01*
Y-34407D01*
X242712D01*
Y-34468D01*
X242773D01*
Y-34530D01*
X242834D01*
Y-34591D01*
X242896D01*
Y-34653D01*
X242957D01*
Y-34714D01*
X243019D01*
Y-34775D01*
X243080D01*
Y-34837D01*
X243141D01*
Y-34898D01*
X243203D01*
Y-34959D01*
X243264D01*
Y-35082D01*
X243326D01*
Y-35144D01*
X243387D01*
Y-35205D01*
X243448D01*
Y-35266D01*
X243510D01*
Y-35328D01*
X243571D01*
Y-35389D01*
X243633D01*
Y-35451D01*
X243694D01*
Y-35512D01*
X243755D01*
Y-35573D01*
X243817D01*
Y-35635D01*
X243878D01*
Y-35696D01*
X243940D01*
Y-35758D01*
X244001D01*
Y-35819D01*
X244062D01*
Y-35880D01*
X244124D01*
Y-35942D01*
X244185D01*
Y-36003D01*
X244247D01*
Y-36065D01*
X244370D01*
Y-36126D01*
X244431D01*
Y-36188D01*
X244492D01*
Y-36249D01*
X244554D01*
Y-36310D01*
X244615D01*
Y-36372D01*
X244738D01*
Y-36433D01*
X244799D01*
Y-36495D01*
X244922D01*
Y-36556D01*
X244984D01*
Y-36617D01*
X245106D01*
Y-36679D01*
X245229D01*
Y-36740D01*
X245291D01*
Y-36802D01*
X245413D01*
Y-36863D01*
X245475D01*
Y-36924D01*
X245597D01*
Y-36986D01*
X245782D01*
Y-37047D01*
X245843D01*
Y-37109D01*
X246027D01*
Y-37170D01*
X246089D01*
Y-37231D01*
X246273D01*
Y-37293D01*
X246396D01*
Y-37354D01*
X246519D01*
Y-37416D01*
X246826D01*
Y-37477D01*
X246948D01*
Y-37538D01*
X247194D01*
Y-37600D01*
X247440D01*
Y-37661D01*
X247747D01*
Y-37723D01*
X254255D01*
Y-37784D01*
X254317D01*
Y-40179D01*
X254378D01*
Y-40240D01*
X254562D01*
Y-40179D01*
X254624D01*
Y-40240D01*
X261378D01*
Y-40179D01*
X261440D01*
Y-40240D01*
X261624D01*
Y-40179D01*
X261685D01*
Y-32872D01*
X261624D01*
Y-32810D01*
X254378D01*
Y-32872D01*
X254317D01*
Y-35328D01*
X248115D01*
Y-35266D01*
X247869D01*
Y-35205D01*
X247501D01*
Y-35144D01*
X247378D01*
Y-35082D01*
X247194D01*
Y-35021D01*
X247010D01*
Y-34959D01*
X246887D01*
Y-34898D01*
X246764D01*
Y-34837D01*
X246641D01*
Y-34775D01*
X246519D01*
Y-34714D01*
X246457D01*
Y-34653D01*
X246396D01*
Y-34591D01*
X246273D01*
Y-34530D01*
X246212D01*
Y-34468D01*
X246089D01*
Y-34407D01*
X246027D01*
Y-34345D01*
X245966D01*
Y-34284D01*
X245905D01*
Y-34161D01*
X245782D01*
Y-34038D01*
X245720D01*
Y-33977D01*
X245659D01*
Y-33916D01*
X245597D01*
Y-33854D01*
X245536D01*
Y-33793D01*
X245475D01*
Y-33731D01*
X245413D01*
Y-33670D01*
X245352D01*
Y-33609D01*
X245291D01*
Y-33547D01*
X245229D01*
Y-33486D01*
X245168D01*
Y-33424D01*
X245106D01*
Y-33363D01*
X245045D01*
Y-33302D01*
X244984D01*
Y-33240D01*
X244922D01*
Y-33179D01*
X244861D01*
Y-33117D01*
X244799D01*
Y-33056D01*
X244738D01*
Y-32933D01*
X244676D01*
Y-32872D01*
X244615D01*
Y-32810D01*
X244554D01*
Y-32749D01*
X244492D01*
Y-32687D01*
X244431D01*
Y-32626D01*
X244370D01*
Y-32565D01*
X244308D01*
Y-32503D01*
X244247D01*
Y-32442D01*
X244185D01*
Y-32380D01*
X244124D01*
Y-32319D01*
X244062D01*
Y-32258D01*
X244001D01*
Y-32196D01*
X243940D01*
Y-32135D01*
X243878D01*
Y-32074D01*
X243817D01*
Y-31951D01*
X243694D01*
Y-31828D01*
X243633D01*
Y-31767D01*
X243571D01*
Y-31705D01*
X243510D01*
Y-31644D01*
X243448D01*
Y-31582D01*
X243387D01*
Y-31521D01*
X243326D01*
Y-31460D01*
X243264D01*
Y-31398D01*
X243203D01*
Y-31337D01*
X243141D01*
Y-31275D01*
X243080D01*
Y-31214D01*
X243019D01*
Y-31152D01*
X242957D01*
Y-31091D01*
X242896D01*
Y-31030D01*
X242834D01*
Y-30968D01*
X242773D01*
Y-30907D01*
X242712D01*
Y-30845D01*
X242650D01*
Y-30784D01*
X242589D01*
Y-30723D01*
X242527D01*
Y-30600D01*
X242404D01*
Y-30477D01*
X242343D01*
Y-30416D01*
X242282D01*
Y-30354D01*
X242220D01*
Y-30293D01*
X242159D01*
Y-30231D01*
X242097D01*
Y-30170D01*
X242036D01*
Y-30109D01*
X241975D01*
Y-30047D01*
X241913D01*
Y-29986D01*
X241852D01*
Y-29924D01*
X241791D01*
Y-29863D01*
X241729D01*
Y-29802D01*
X241668D01*
Y-29740D01*
X241606D01*
Y-29617D01*
X241483D01*
Y-29495D01*
X241422D01*
Y-29433D01*
X241361D01*
Y-29372D01*
X241299D01*
Y-29310D01*
X241238D01*
Y-29249D01*
X241176D01*
Y-29188D01*
X241115D01*
Y-29126D01*
X241054D01*
Y-29065D01*
X240992D01*
Y-29003D01*
X240931D01*
Y-28942D01*
X240870D01*
Y-28881D01*
X240808D01*
Y-28819D01*
X240747D01*
Y-28758D01*
X240685D01*
Y-28696D01*
X240624D01*
Y-28635D01*
X240562D01*
Y-28574D01*
X240501D01*
Y-28512D01*
X240440D01*
Y-28451D01*
X240378D01*
Y-28389D01*
X240317D01*
Y-28266D01*
X240194D01*
Y-28144D01*
X240133D01*
Y-28082D01*
X240071D01*
Y-28021D01*
X240010D01*
Y-27959D01*
X239948D01*
Y-27898D01*
X239887D01*
Y-27837D01*
X239826D01*
Y-27775D01*
X239764D01*
Y-27714D01*
X239703D01*
Y-27652D01*
X239641D01*
Y-27591D01*
X239580D01*
Y-27530D01*
X239519D01*
Y-27468D01*
X239457D01*
Y-27407D01*
X239396D01*
Y-27345D01*
X239334D01*
Y-27284D01*
X239273D01*
Y-27161D01*
X239212D01*
Y-27100D01*
X239150D01*
Y-27038D01*
X239089D01*
Y-26977D01*
X239027D01*
Y-26916D01*
X238966D01*
Y-26854D01*
X238905D01*
Y-26793D01*
X238843D01*
Y-26670D01*
X267150D01*
Y-26731D01*
X267212D01*
Y-29617D01*
X267273D01*
Y-29679D01*
X267334D01*
Y-29617D01*
X267519D01*
Y-29556D01*
X267580D01*
Y-29495D01*
X267641D01*
Y-29433D01*
X267826D01*
Y-29372D01*
X267887D01*
Y-29310D01*
X268010D01*
Y-29249D01*
X268133D01*
Y-29188D01*
X268194D01*
Y-29126D01*
X268317D01*
Y-29065D01*
X268378D01*
Y-29003D01*
X268563D01*
Y-28942D01*
X268624D01*
Y-28881D01*
X268747D01*
Y-28819D01*
X268869D01*
Y-28758D01*
X268931D01*
Y-28696D01*
X269054D01*
Y-28635D01*
X269177D01*
Y-28574D01*
X269299D01*
Y-28512D01*
X269361D01*
Y-28451D01*
X269484D01*
Y-28389D01*
X269606D01*
Y-28328D01*
X269668D01*
Y-28266D01*
X269852D01*
Y-28205D01*
X269913D01*
Y-28144D01*
X270036D01*
Y-28082D01*
X270159D01*
Y-28021D01*
X270220D01*
Y-27959D01*
X270343D01*
Y-27898D01*
X270405D01*
Y-27837D01*
X270589D01*
Y-27775D01*
X270650D01*
Y-27714D01*
X270773D01*
Y-27652D01*
X270896D01*
Y-27591D01*
X270957D01*
Y-27530D01*
X271080D01*
Y-27468D01*
X271203D01*
Y-27407D01*
X271326D01*
Y-27345D01*
X271387D01*
Y-27284D01*
X271510D01*
Y-27223D01*
X271633D01*
Y-27161D01*
X271694D01*
Y-27100D01*
X271878D01*
Y-27038D01*
X271940D01*
Y-26977D01*
X272062D01*
Y-26916D01*
X272185D01*
Y-26854D01*
X272247D01*
Y-26793D01*
X272369D01*
Y-26731D01*
X272431D01*
Y-26670D01*
X272615D01*
Y-26609D01*
X272677D01*
Y-26547D01*
X272799D01*
Y-26486D01*
X272922D01*
Y-26424D01*
X272983D01*
Y-26363D01*
X273106D01*
Y-26302D01*
X273229D01*
Y-26240D01*
X273352D01*
Y-26179D01*
X273413D01*
Y-26117D01*
X273536D01*
Y-26056D01*
X273659D01*
Y-25995D01*
X273720D01*
Y-25933D01*
X273843D01*
Y-25872D01*
X273966D01*
Y-25810D01*
X274089D01*
Y-25749D01*
X274212D01*
Y-25687D01*
X274273D01*
Y-25626D01*
X274396D01*
Y-25565D01*
X274457D01*
Y-25503D01*
X274519D01*
Y-25442D01*
X274457D01*
Y-25380D01*
X274396D01*
Y-25319D01*
X274273D01*
Y-25258D01*
X274212D01*
Y-25196D01*
X274027D01*
Y-25135D01*
X273966D01*
Y-25073D01*
X273843D01*
Y-25012D01*
X273720D01*
Y-24951D01*
X273659D01*
Y-24889D01*
X273536D01*
Y-24828D01*
X273413D01*
Y-24766D01*
X273291D01*
Y-24705D01*
X273229D01*
Y-24644D01*
X273106D01*
Y-24582D01*
X272983D01*
Y-24521D01*
X272922D01*
Y-24460D01*
X272799D01*
Y-24398D01*
X272677D01*
Y-24337D01*
X272554D01*
Y-24275D01*
X272431D01*
Y-24214D01*
X272369D01*
Y-24153D01*
X272247D01*
Y-24091D01*
X272124D01*
Y-24030D01*
X272062D01*
Y-23968D01*
X271940D01*
Y-23907D01*
X271817D01*
Y-23845D01*
X271694D01*
Y-23784D01*
X271633D01*
Y-23723D01*
X271510D01*
Y-23661D01*
X271387D01*
Y-23600D01*
X271326D01*
Y-23538D01*
X271203D01*
Y-23477D01*
X271080D01*
Y-23416D01*
X270957D01*
Y-23354D01*
X270896D01*
Y-23293D01*
X270773D01*
Y-23231D01*
X270650D01*
Y-23170D01*
X270589D01*
Y-23109D01*
X270405D01*
Y-23047D01*
X270343D01*
Y-22986D01*
X270220D01*
Y-22924D01*
X270159D01*
Y-22863D01*
X270036D01*
Y-22802D01*
X269913D01*
Y-22740D01*
X269852D01*
Y-22679D01*
X269668D01*
Y-22617D01*
X269606D01*
Y-22556D01*
X269484D01*
Y-22494D01*
X269361D01*
Y-22433D01*
X269299D01*
Y-22372D01*
X269177D01*
Y-22310D01*
X269054D01*
Y-22249D01*
X268931D01*
Y-22188D01*
X268869D01*
Y-22126D01*
X268747D01*
Y-22065D01*
X268624D01*
Y-22003D01*
X268563D01*
Y-21942D01*
X268378D01*
Y-21881D01*
X268317D01*
Y-21819D01*
X268194D01*
Y-21758D01*
X268133D01*
Y-21696D01*
X268010D01*
Y-21635D01*
X267887D01*
Y-21574D01*
X267826D01*
Y-21512D01*
X267641D01*
Y-21451D01*
X267580D01*
Y-21389D01*
X267457D01*
Y-21328D01*
X267212D01*
Y-24214D01*
X267150D01*
Y-24275D01*
X229633D01*
Y-24153D01*
X229694D01*
Y-24091D01*
X229755D01*
Y-24030D01*
X229817D01*
Y-23968D01*
X229878D01*
Y-23845D01*
X230001D01*
Y-23723D01*
X230063D01*
Y-23661D01*
X230124D01*
Y-23600D01*
X230185D01*
Y-23538D01*
X230247D01*
Y-23477D01*
X230308D01*
Y-23416D01*
X230369D01*
Y-23354D01*
X230431D01*
Y-23293D01*
X230492D01*
Y-23231D01*
X230554D01*
Y-23170D01*
X230615D01*
Y-23109D01*
X230676D01*
Y-23047D01*
X230738D01*
Y-22986D01*
X230799D01*
Y-22924D01*
X230861D01*
Y-22863D01*
X230922D01*
Y-22802D01*
X230984D01*
Y-22740D01*
X231045D01*
Y-22679D01*
X231106D01*
Y-22617D01*
X231168D01*
Y-22494D01*
X231229D01*
Y-22433D01*
X231290D01*
Y-22372D01*
X231352D01*
Y-22310D01*
X231413D01*
Y-22249D01*
X231475D01*
Y-22188D01*
X231536D01*
Y-22126D01*
X231597D01*
Y-22065D01*
X231659D01*
Y-22003D01*
X231720D01*
Y-21942D01*
X231782D01*
Y-21881D01*
X231843D01*
Y-21819D01*
X231905D01*
Y-21758D01*
X231966D01*
Y-21696D01*
X232027D01*
Y-21635D01*
X232089D01*
Y-21512D01*
X232150D01*
Y-21451D01*
X232212D01*
Y-21389D01*
X232273D01*
Y-21328D01*
X232334D01*
Y-21267D01*
X232396D01*
Y-21205D01*
X232457D01*
Y-21144D01*
X232519D01*
Y-21082D01*
X232580D01*
Y-21021D01*
X232641D01*
Y-20959D01*
X232703D01*
Y-20898D01*
X232764D01*
Y-20837D01*
X232826D01*
Y-20775D01*
X232887D01*
Y-20714D01*
X232948D01*
Y-20652D01*
X233010D01*
Y-20591D01*
X233071D01*
Y-20530D01*
X233133D01*
Y-20468D01*
X233194D01*
Y-20407D01*
X233255D01*
Y-20345D01*
X233317D01*
Y-20284D01*
X233378D01*
Y-20161D01*
X233440D01*
Y-20100D01*
X233501D01*
Y-20038D01*
X233562D01*
Y-19977D01*
X233624D01*
Y-19916D01*
X233685D01*
Y-19854D01*
X233747D01*
Y-19793D01*
X233808D01*
Y-19731D01*
X233869D01*
Y-19670D01*
X233931D01*
Y-19609D01*
X233992D01*
Y-19547D01*
X234054D01*
Y-19486D01*
X234115D01*
Y-19424D01*
X234177D01*
Y-19363D01*
X234238D01*
Y-19302D01*
X234299D01*
Y-19179D01*
X234361D01*
Y-19117D01*
X234422D01*
Y-19056D01*
X234484D01*
Y-18995D01*
X234545D01*
Y-18933D01*
X234606D01*
Y-18872D01*
X234668D01*
Y-18810D01*
X234729D01*
Y-18749D01*
X234790D01*
Y-18687D01*
X234852D01*
Y-18626D01*
X234913D01*
Y-18565D01*
X234975D01*
Y-18503D01*
X235036D01*
Y-18442D01*
X235098D01*
Y-18381D01*
X235159D01*
Y-18319D01*
X235220D01*
Y-18258D01*
X235282D01*
Y-18196D01*
X235343D01*
Y-18135D01*
X235405D01*
Y-18074D01*
X235466D01*
Y-17951D01*
X235589D01*
Y-17828D01*
X235650D01*
Y-17766D01*
X235712D01*
Y-17705D01*
X235773D01*
Y-17644D01*
X235834D01*
Y-17582D01*
X235896D01*
Y-17521D01*
X235957D01*
Y-17459D01*
X236019D01*
Y-17398D01*
X236080D01*
Y-17337D01*
X236141D01*
Y-17275D01*
X236203D01*
Y-17214D01*
X236264D01*
Y-17152D01*
X236326D01*
Y-17091D01*
X236387D01*
Y-17030D01*
X236448D01*
Y-16968D01*
X236510D01*
Y-16845D01*
X236571D01*
Y-16784D01*
X236633D01*
Y-16723D01*
X236694D01*
Y-16661D01*
X236755D01*
Y-16600D01*
X236817D01*
Y-16538D01*
X236878D01*
Y-16477D01*
X237001D01*
Y-16416D01*
X237062D01*
Y-16354D01*
X237124D01*
Y-16293D01*
X237247D01*
Y-16231D01*
X237308D01*
Y-16170D01*
X237431D01*
Y-16109D01*
X237554D01*
Y-16047D01*
X237677D01*
Y-15986D01*
X237799D01*
Y-15924D01*
X237983D01*
Y-15863D01*
X238106D01*
Y-15802D01*
X238291D01*
Y-15740D01*
X238598D01*
Y-15679D01*
X238905D01*
Y-15617D01*
X245291D01*
Y-15679D01*
X245352D01*
Y-15802D01*
X245413D01*
Y-15863D01*
X245475D01*
Y-16047D01*
X245536D01*
Y-16170D01*
X245597D01*
Y-16293D01*
X245659D01*
Y-16354D01*
X245720D01*
Y-16416D01*
X245782D01*
Y-16600D01*
X245843D01*
Y-16661D01*
X245905D01*
Y-16723D01*
X245966D01*
Y-16784D01*
X246027D01*
Y-16845D01*
X246089D01*
Y-16907D01*
X246150D01*
Y-16968D01*
X246212D01*
Y-17030D01*
X246273D01*
Y-17091D01*
X246334D01*
Y-17152D01*
X246396D01*
Y-17214D01*
X246457D01*
Y-17275D01*
X246519D01*
Y-17337D01*
X246580D01*
Y-17398D01*
X246703D01*
Y-17459D01*
X246764D01*
Y-17521D01*
X246887D01*
Y-17582D01*
X246948D01*
Y-17644D01*
X247071D01*
Y-17705D01*
X247194D01*
Y-17766D01*
X247317D01*
Y-17828D01*
X247501D01*
Y-17889D01*
X247624D01*
Y-17951D01*
X247869D01*
Y-18012D01*
X248115D01*
Y-18074D01*
X248729D01*
Y-18135D01*
X248852D01*
Y-18074D01*
X249466D01*
Y-18012D01*
X249650D01*
Y-17951D01*
X249957D01*
Y-17889D01*
X250080D01*
Y-17828D01*
X250264D01*
Y-17766D01*
X250387D01*
Y-17705D01*
X250510D01*
Y-17644D01*
X250633D01*
Y-17582D01*
X250694D01*
Y-17521D01*
X250817D01*
Y-17459D01*
X250940D01*
Y-17398D01*
X251001D01*
Y-17337D01*
X251062D01*
Y-17275D01*
X251124D01*
Y-17214D01*
X251247D01*
Y-17152D01*
X251308D01*
Y-17091D01*
X251369D01*
Y-17030D01*
X251431D01*
Y-16968D01*
X251492D01*
Y-16907D01*
X251554D01*
Y-16784D01*
X251615D01*
Y-16723D01*
X251677D01*
Y-16661D01*
X251738D01*
Y-16600D01*
X251799D01*
Y-16477D01*
X251861D01*
Y-16416D01*
X251922D01*
Y-16293D01*
X251984D01*
Y-16170D01*
X252045D01*
Y-16109D01*
X252106D01*
Y-15924D01*
X252168D01*
Y-15863D01*
X252229D01*
Y-15617D01*
X252290D01*
Y-15495D01*
X252352D01*
Y-15310D01*
X252413D01*
Y-14819D01*
X252475D01*
Y-14021D01*
X252413D01*
Y-13530D01*
X252352D01*
Y-13345D01*
X252290D01*
Y-13161D01*
X252229D01*
Y-12977D01*
X252168D01*
Y-12916D01*
X252106D01*
Y-12731D01*
X252045D01*
Y-12670D01*
X251984D01*
Y-12547D01*
X251922D01*
Y-12424D01*
X251861D01*
Y-12363D01*
X251799D01*
Y-12240D01*
X251738D01*
Y-12179D01*
X251677D01*
Y-12117D01*
X251615D01*
Y-11995D01*
X251554D01*
Y-11933D01*
X251492D01*
Y-11872D01*
X251431D01*
Y-11810D01*
X251369D01*
Y-11749D01*
X251308D01*
Y-11688D01*
X251247D01*
Y-11626D01*
X251124D01*
Y-11565D01*
X251062D01*
Y-11503D01*
X251001D01*
Y-11442D01*
X250940D01*
Y-11380D01*
X250817D01*
Y-11319D01*
X250755D01*
Y-11258D01*
X250633D01*
Y-11196D01*
X250510D01*
Y-11135D01*
X250387D01*
Y-11073D01*
X250264D01*
Y-11012D01*
X250080D01*
Y-10951D01*
X249957D01*
Y-10889D01*
X249712D01*
Y-10828D01*
X249527D01*
Y-10767D01*
D02*
G37*
%LPD*%
D10*
X144380Y-330200D02*
G03*
X144380Y-330200I-25000J0D01*
G01*
X488950Y-83900D02*
G03*
X488950Y-93900I0J-5000D01*
G01*
Y-58500D02*
G03*
X488950Y-68500I0J-5000D01*
G01*
X61040Y-31750D02*
G03*
X71040Y-31750I5000J0D01*
G01*
X35640D02*
G03*
X45640Y-31750I5000J0D01*
G01*
X61040Y-209550D02*
G03*
X71040Y-209550I5000J0D01*
G01*
X35640D02*
G03*
X45640Y-209550I5000J0D01*
G01*
X61040Y-120650D02*
G03*
X71040Y-120650I5000J0D01*
G01*
X35640D02*
G03*
X45640Y-120650I5000J0D01*
G01*
X488950Y-337900D02*
G03*
X488950Y-347900I0J-5000D01*
G01*
Y-414100D02*
G03*
X488950Y-424100I0J-5000D01*
G01*
X26670Y-391080D02*
G03*
X26670Y-381080I0J5000D01*
G01*
Y-340280D02*
G03*
X26670Y-330280I0J5000D01*
G01*
X488950Y-172800D02*
G03*
X488950Y-182800I0J-5000D01*
G01*
Y-249000D02*
G03*
X488950Y-259000I0J-5000D01*
G01*
X420370Y-337900D02*
G03*
X420370Y-347900I0J-5000D01*
G01*
Y-414100D02*
G03*
X420370Y-424100I0J-5000D01*
G01*
X128220Y-317500D02*
X138380D01*
X133300Y-322580D02*
Y-312420D01*
X152400Y-431800D02*
Y0D01*
X330200Y-431800D02*
Y0D01*
X152400D02*
X330200D01*
X152400Y-431800D02*
X330200D01*
X206300Y-50800D02*
Y25400D01*
X276300Y-50800D02*
Y25400D01*
X206300D02*
X276300D01*
X206300Y-50800D02*
X276300D01*
X431800Y-113700D02*
X489800D01*
X431800Y-38700D02*
X489800D01*
Y-113700D02*
Y-38700D01*
X431800Y-113700D02*
Y-38700D01*
X90840Y-88900D02*
Y-30900D01*
X15840Y-88900D02*
Y-30900D01*
X90840D01*
X15840Y-88900D02*
X90840D01*
Y-266700D02*
Y-208700D01*
X15840Y-266700D02*
Y-208700D01*
X90840D01*
X15840Y-266700D02*
X90840D01*
Y-177800D02*
Y-119800D01*
X15840Y-177800D02*
Y-119800D01*
X90840D01*
X15840Y-177800D02*
X90840D01*
X431800Y-443500D02*
Y-318500D01*
X489800Y-443500D02*
Y-318500D01*
X431800D02*
X489800D01*
X431800Y-443500D02*
X489800D01*
X83820Y-410680D02*
Y-310680D01*
X25820Y-410680D02*
Y-310680D01*
Y-410680D02*
X83820D01*
X25820Y-310680D02*
X83820D01*
X431800Y-278400D02*
Y-153400D01*
X489800Y-278400D02*
Y-153400D01*
X431800D02*
X489800D01*
X431800Y-278400D02*
X489800D01*
X363220Y-443500D02*
Y-318500D01*
X421220Y-443500D02*
Y-318500D01*
X363220D02*
X421220D01*
X363220Y-443500D02*
X421220D01*
X364490Y-294391D02*
Y-307087D01*
X367029Y-309626D01*
X372108D01*
X374647Y-307087D01*
Y-294391D01*
X387343Y-309626D02*
Y-294391D01*
X379725Y-302008D01*
X389882D01*
X433070Y-294391D02*
Y-307087D01*
X435609Y-309626D01*
X440687D01*
X443227Y-307087D01*
Y-294391D01*
X448305Y-296930D02*
X450844Y-294391D01*
X455923D01*
X458462Y-296930D01*
Y-299469D01*
X455923Y-302008D01*
X453383D01*
X455923D01*
X458462Y-304548D01*
Y-307087D01*
X455923Y-309626D01*
X450844D01*
X448305Y-307087D01*
X433070Y-129291D02*
Y-141987D01*
X435609Y-144526D01*
X440687D01*
X443227Y-141987D01*
Y-129291D01*
X458462Y-144526D02*
X448305D01*
X458462Y-134369D01*
Y-131830D01*
X455923Y-129291D01*
X450844D01*
X448305Y-131830D01*
X27178Y-301752D02*
Y-286517D01*
X32256Y-291595D01*
X37335Y-286517D01*
Y-301752D01*
X42413D02*
X47491D01*
X44952D01*
Y-286517D01*
X42413Y-289056D01*
X443227Y-14483D02*
X438148D01*
X440687D01*
Y-27179D01*
X438148Y-29718D01*
X435609D01*
X433070Y-27179D01*
X448305Y-29718D02*
X453383D01*
X450844D01*
Y-14483D01*
X448305Y-17022D01*
X27175Y-184663D02*
X17018D01*
Y-192281D01*
X22096D01*
X17018D01*
Y-199898D01*
X42410Y-187202D02*
X39871Y-184663D01*
X34792D01*
X32253Y-187202D01*
Y-189741D01*
X34792Y-192281D01*
X39871D01*
X42410Y-194820D01*
Y-197359D01*
X39871Y-199898D01*
X34792D01*
X32253Y-197359D01*
X47488Y-199898D02*
Y-184663D01*
X55106D01*
X57645Y-187202D01*
Y-192281D01*
X55106Y-194820D01*
X47488D01*
X52566D02*
X57645Y-199898D01*
X62723Y-187202D02*
X65262Y-184663D01*
X70341D01*
X72880Y-187202D01*
Y-189741D01*
X70341Y-192281D01*
X67802D01*
X70341D01*
X72880Y-194820D01*
Y-197359D01*
X70341Y-199898D01*
X65262D01*
X62723Y-197359D01*
X27175Y-95763D02*
X17018D01*
Y-103380D01*
X22096D01*
X17018D01*
Y-110998D01*
X42410Y-98302D02*
X39871Y-95763D01*
X34792D01*
X32253Y-98302D01*
Y-100841D01*
X34792Y-103380D01*
X39871D01*
X42410Y-105920D01*
Y-108459D01*
X39871Y-110998D01*
X34792D01*
X32253Y-108459D01*
X47488Y-110998D02*
Y-95763D01*
X55106D01*
X57645Y-98302D01*
Y-103380D01*
X55106Y-105920D01*
X47488D01*
X52566D02*
X57645Y-110998D01*
X72880D02*
X62723D01*
X72880Y-100841D01*
Y-98302D01*
X70341Y-95763D01*
X65262D01*
X62723Y-98302D01*
X27175Y-6863D02*
X17018D01*
Y-14481D01*
X22096D01*
X17018D01*
Y-22098D01*
X42410Y-9402D02*
X39871Y-6863D01*
X34792D01*
X32253Y-9402D01*
Y-11941D01*
X34792Y-14481D01*
X39871D01*
X42410Y-17020D01*
Y-19559D01*
X39871Y-22098D01*
X34792D01*
X32253Y-19559D01*
X47488Y-22098D02*
Y-6863D01*
X55106D01*
X57645Y-9402D01*
Y-14481D01*
X55106Y-17020D01*
X47488D01*
X52566D02*
X57645Y-22098D01*
X62723D02*
X67802D01*
X65262D01*
Y-6863D01*
X62723Y-9402D01*
X129540Y-363222D02*
X127001Y-360682D01*
X121923D01*
X119383Y-363222D01*
Y-373378D01*
X121923Y-375918D01*
X127001D01*
X129540Y-373378D01*
X134618Y-375918D02*
X139697D01*
X137158D01*
Y-360682D01*
X134618Y-363222D01*
X153670Y49525D02*
Y36829D01*
X156209Y34290D01*
X161287D01*
X163827Y36829D01*
Y49525D01*
X168905Y34290D02*
X173983D01*
X171444D01*
Y49525D01*
X168905Y46986D01*
M02*
