G04*
G04 #@! TF.GenerationSoftware,Altium Limited,Altium Designer,24.5.1 (21)*
G04*
G04 Layer_Physical_Order=2*
G04 Layer_Color=16711680*
%FSLAX44Y44*%
%MOMM*%
G71*
G04*
G04 #@! TF.SameCoordinates,4CF24129-FD56-4E2D-9210-4E3AEFEF1F0E*
G04*
G04*
G04 #@! TF.FilePolarity,Positive*
G04*
G01*
G75*
%ADD10C,0.2540*%
%ADD17C,1.2700*%
%ADD18C,2.0320*%
%ADD19C,1.2700*%
%ADD20R,2.5400X1.2700*%
%ADD21O,2.5400X1.2700*%
%ADD22O,2.2860X1.7780*%
%ADD23O,1.7780X2.2860*%
%ADD24R,1.8000X1.1500*%
%ADD25C,0.5080*%
G36*
X74554Y-58910D02*
X74720Y-59340D01*
X74996Y-59720D01*
X75382Y-60049D01*
X75880Y-60327D01*
X76487Y-60555D01*
X77205Y-60732D01*
X78034Y-60859D01*
X78973Y-60935D01*
X80022Y-60960D01*
Y-66040D01*
X78973Y-66065D01*
X78034Y-66141D01*
X77205Y-66268D01*
X76487Y-66445D01*
X75880Y-66673D01*
X75382Y-66951D01*
X74996Y-67280D01*
X74720Y-67660D01*
X74554Y-68090D01*
X74499Y-68571D01*
Y-58429D01*
X74554Y-58910D01*
D02*
G37*
G36*
X97741Y-68580D02*
X97690Y-68097D01*
X97537Y-67666D01*
X97281Y-67285D01*
X96923Y-66954D01*
X96463Y-66675D01*
X95901Y-66446D01*
X95237Y-66269D01*
X94470Y-66142D01*
X93602Y-66065D01*
X92631Y-66040D01*
Y-60960D01*
X93602Y-60935D01*
X94470Y-60858D01*
X95237Y-60731D01*
X95901Y-60554D01*
X96463Y-60325D01*
X96923Y-60046D01*
X97281Y-59715D01*
X97537Y-59334D01*
X97690Y-58903D01*
X97741Y-58420D01*
Y-68580D01*
D02*
G37*
G36*
X115666Y-60175D02*
X115807Y-60538D01*
X116042Y-60858D01*
X116372Y-61136D01*
X116795Y-61371D01*
X117313Y-61563D01*
X117925Y-61712D01*
X118630Y-61819D01*
X119430Y-61883D01*
X120324Y-61904D01*
Y-66984D01*
X119430Y-67006D01*
X118630Y-67070D01*
X117925Y-67176D01*
X117313Y-67326D01*
X116795Y-67518D01*
X116372Y-67753D01*
X116042Y-68030D01*
X115807Y-68350D01*
X115666Y-68713D01*
X115619Y-69119D01*
Y-59770D01*
X115666Y-60175D01*
D02*
G37*
G36*
X510540Y-450632D02*
X508000Y-457200D01*
X488950D01*
Y-460751D01*
X484101Y-467360D01*
X481099D01*
X478155Y-467946D01*
X476412Y-468668D01*
X475998Y-468580D01*
X473633Y-467530D01*
X469035Y-462102D01*
X469900Y-458872D01*
Y-455528D01*
X469035Y-452298D01*
X467812Y-450180D01*
X458996Y-458996D01*
X457200Y-457200D01*
X455404Y-458996D01*
X446588Y-450180D01*
X445365Y-452298D01*
X444500Y-455528D01*
Y-457200D01*
X356872D01*
X354335Y-451718D01*
X354124Y-449580D01*
X371852Y-431852D01*
X377079Y-427895D01*
X380316Y-429084D01*
X383096Y-430236D01*
X386080Y-430629D01*
X391160D01*
X394144Y-430236D01*
X396924Y-429084D01*
X397280Y-428812D01*
X389364Y-420896D01*
X392956Y-417304D01*
X400872Y-425219D01*
X401144Y-424864D01*
X402296Y-422084D01*
X402689Y-419100D01*
X402296Y-416116D01*
X401144Y-413336D01*
X400910Y-413030D01*
X400804Y-412753D01*
X403008Y-406568D01*
X404139Y-405229D01*
X441681D01*
X442812Y-406568D01*
X445015Y-412753D01*
X444910Y-413030D01*
X444676Y-413336D01*
X443524Y-416116D01*
X443131Y-419100D01*
X443524Y-422084D01*
X444676Y-424864D01*
X444948Y-425219D01*
X452864Y-417304D01*
X456456Y-420896D01*
X448540Y-428812D01*
X448896Y-429084D01*
X451676Y-430236D01*
X454660Y-430629D01*
X459740D01*
X462724Y-430236D01*
X465504Y-429084D01*
X465859Y-428812D01*
X457944Y-420896D01*
X461536Y-417304D01*
X469452Y-425219D01*
X469724Y-424864D01*
X470876Y-422084D01*
X471269Y-419100D01*
X470876Y-416116D01*
X469724Y-413336D01*
X469490Y-413030D01*
X469119Y-412052D01*
X469088Y-410799D01*
X473412Y-404257D01*
X476396Y-403864D01*
X479176Y-402712D01*
X481564Y-400880D01*
X490752Y-391692D01*
X492584Y-389304D01*
X493736Y-386524D01*
X494129Y-383540D01*
X494129Y-383540D01*
Y-271780D01*
X494129Y-271780D01*
X493736Y-268796D01*
X492584Y-266016D01*
X490752Y-263628D01*
X473944Y-246820D01*
X472702Y-245867D01*
X471652Y-243310D01*
X470942Y-239459D01*
X470699Y-237266D01*
X471943Y-235645D01*
X473350Y-232247D01*
X473830Y-228600D01*
X473350Y-224953D01*
X471943Y-221555D01*
X469703Y-218636D01*
Y-213164D01*
X471943Y-210245D01*
X473350Y-206847D01*
X473830Y-203200D01*
X473350Y-199553D01*
X471943Y-196155D01*
X469703Y-193237D01*
X469525Y-192517D01*
X469151Y-184762D01*
X469490Y-183870D01*
X469724Y-183564D01*
X470876Y-180784D01*
X471269Y-177800D01*
X470876Y-174816D01*
X469724Y-172036D01*
X469452Y-171681D01*
X461536Y-179596D01*
X457944Y-176004D01*
X465859Y-168088D01*
X465504Y-167816D01*
X462724Y-166664D01*
X459740Y-166271D01*
X454660D01*
X451676Y-166664D01*
X448896Y-167816D01*
X448541Y-168088D01*
X456456Y-176004D01*
X452864Y-179596D01*
X444948Y-171681D01*
X444676Y-172036D01*
X443524Y-174816D01*
X443131Y-177800D01*
X443524Y-180784D01*
X444676Y-183564D01*
X444910Y-183870D01*
X445249Y-184762D01*
X444875Y-192517D01*
X444696Y-193237D01*
X442457Y-196155D01*
X441050Y-199553D01*
X440569Y-203200D01*
X441050Y-206847D01*
X442457Y-210245D01*
X444697Y-213164D01*
Y-215726D01*
X444497Y-216011D01*
X438326Y-221654D01*
X420727D01*
X420585Y-221622D01*
X420480Y-221619D01*
Y-214170D01*
X392320D01*
Y-214170D01*
X388583D01*
X381066Y-211211D01*
Y-153044D01*
X436097Y-98012D01*
X444332Y-98389D01*
X444697Y-98863D01*
X447615Y-101103D01*
X451013Y-102510D01*
X454660Y-102991D01*
X459740D01*
X463387Y-102510D01*
X466785Y-101103D01*
X469703Y-98863D01*
X471943Y-95945D01*
X473350Y-92547D01*
X473830Y-88900D01*
X473350Y-85253D01*
X471943Y-81855D01*
X469703Y-78937D01*
X469525Y-78217D01*
X469151Y-70462D01*
X469490Y-69570D01*
X469724Y-69264D01*
X470876Y-66484D01*
X471269Y-63500D01*
X470876Y-60516D01*
X469724Y-57736D01*
X469452Y-57380D01*
X461536Y-65296D01*
X457944Y-61704D01*
X465859Y-53788D01*
X465504Y-53516D01*
X462724Y-52364D01*
X459740Y-51971D01*
X454660D01*
X451676Y-52364D01*
X448896Y-53516D01*
X448541Y-53788D01*
X456456Y-61704D01*
X452864Y-65296D01*
X444948Y-57380D01*
X444676Y-57736D01*
X443524Y-60516D01*
X443131Y-63500D01*
X443524Y-66484D01*
X444676Y-69264D01*
X444910Y-69570D01*
X445249Y-70462D01*
X444875Y-78217D01*
X444696Y-78937D01*
X442864Y-81324D01*
X434230D01*
X432241Y-81586D01*
X430387Y-82354D01*
X428795Y-83575D01*
X367945Y-144425D01*
X366724Y-146017D01*
X365956Y-147871D01*
X365694Y-149860D01*
Y-213923D01*
X365662Y-214064D01*
X365659Y-214170D01*
X359300D01*
Y-219820D01*
X359195Y-219822D01*
X359053Y-219854D01*
X354120D01*
X352131Y-220116D01*
X350277Y-220884D01*
X348685Y-222105D01*
X341165Y-229625D01*
X339944Y-231217D01*
X338973Y-231479D01*
X336783Y-229851D01*
X336373Y-229354D01*
X333834Y-221664D01*
X334986Y-218884D01*
X335379Y-215900D01*
X334986Y-212916D01*
X333834Y-210136D01*
X332002Y-207748D01*
X331998Y-207745D01*
X331408Y-205947D01*
Y-200453D01*
X331998Y-198655D01*
X332002Y-198652D01*
X333834Y-196264D01*
X334986Y-193484D01*
X335379Y-190500D01*
X334986Y-187516D01*
X333834Y-184736D01*
X332002Y-182348D01*
X331998Y-182345D01*
X331408Y-180547D01*
Y-175053D01*
X331998Y-173255D01*
X332002Y-173252D01*
X333834Y-170864D01*
X334986Y-168084D01*
X335379Y-165100D01*
X334986Y-162116D01*
X333834Y-159336D01*
X332002Y-156948D01*
X331998Y-156945D01*
X331408Y-155147D01*
Y-149653D01*
X331998Y-147855D01*
X332002Y-147852D01*
X333834Y-145464D01*
X334986Y-142684D01*
X335379Y-139700D01*
X334986Y-136716D01*
X333834Y-133936D01*
X332002Y-131548D01*
X331998Y-131545D01*
X331408Y-129747D01*
Y-124253D01*
X331998Y-122455D01*
X332002Y-122452D01*
X333834Y-120064D01*
X334986Y-117284D01*
X335379Y-114300D01*
X334986Y-111316D01*
X333834Y-108536D01*
X332002Y-106148D01*
X331998Y-106145D01*
X331408Y-104347D01*
Y-98853D01*
X331998Y-97055D01*
X332002Y-97052D01*
X333834Y-94664D01*
X334986Y-91884D01*
X335379Y-88900D01*
X334986Y-85916D01*
X333834Y-83136D01*
X332002Y-80748D01*
X331998Y-80745D01*
X331408Y-78947D01*
Y-73453D01*
X331998Y-71655D01*
X332002Y-71652D01*
X333834Y-69264D01*
X334986Y-66484D01*
X335379Y-63500D01*
X334986Y-60516D01*
X333834Y-57736D01*
X332002Y-55348D01*
X331998Y-55345D01*
X331408Y-53547D01*
Y-48053D01*
X331998Y-46255D01*
X332002Y-46252D01*
X333834Y-43864D01*
X334986Y-41084D01*
X335379Y-38100D01*
X334986Y-35116D01*
X333834Y-32336D01*
X332002Y-29948D01*
X329614Y-28116D01*
X326834Y-26964D01*
X323850Y-26571D01*
X311150D01*
X308166Y-26964D01*
X305386Y-28116D01*
X302998Y-29948D01*
X301166Y-32336D01*
X300014Y-35116D01*
X299621Y-38100D01*
X300014Y-41084D01*
X301166Y-43864D01*
X302998Y-46252D01*
X303002Y-46255D01*
X303592Y-48053D01*
Y-53547D01*
X303002Y-55345D01*
X302998Y-55348D01*
X301166Y-57736D01*
X300014Y-60516D01*
X299621Y-63500D01*
X300014Y-66484D01*
X301166Y-69264D01*
X302998Y-71652D01*
X303002Y-71655D01*
X303592Y-73453D01*
Y-78947D01*
X303002Y-80745D01*
X302998Y-80748D01*
X301166Y-83136D01*
X300014Y-85916D01*
X299621Y-88900D01*
X300014Y-91884D01*
X301166Y-94664D01*
X302998Y-97052D01*
X303002Y-97055D01*
X303592Y-98853D01*
Y-104347D01*
X303002Y-106145D01*
X302998Y-106148D01*
X301166Y-108536D01*
X300014Y-111316D01*
X299621Y-114300D01*
X300014Y-117284D01*
X301166Y-120064D01*
X302998Y-122452D01*
X303002Y-122455D01*
X303592Y-124253D01*
Y-129747D01*
X303002Y-131545D01*
X302998Y-131548D01*
X301166Y-133936D01*
X300014Y-136716D01*
X299621Y-139700D01*
X300014Y-142684D01*
X301166Y-145464D01*
X302998Y-147852D01*
X303002Y-147855D01*
X303592Y-149653D01*
Y-155147D01*
X303002Y-156945D01*
X302998Y-156948D01*
X301166Y-159336D01*
X300014Y-162116D01*
X299621Y-165100D01*
X300014Y-168084D01*
X301166Y-170864D01*
X302998Y-173252D01*
X303002Y-173255D01*
X303592Y-175053D01*
Y-180547D01*
X303002Y-182345D01*
X302998Y-182348D01*
X301166Y-184736D01*
X300014Y-187516D01*
X299621Y-190500D01*
X300014Y-193484D01*
X301166Y-196264D01*
X302998Y-198652D01*
X303002Y-198655D01*
X303592Y-200453D01*
Y-205947D01*
X303002Y-207745D01*
X302998Y-207748D01*
X301166Y-210136D01*
X300014Y-212916D01*
X299621Y-215900D01*
X300014Y-218884D01*
X301166Y-221664D01*
X302998Y-224052D01*
X303002Y-224055D01*
X303592Y-225853D01*
Y-231347D01*
X303002Y-233145D01*
X302998Y-233148D01*
X301166Y-235536D01*
X300014Y-238316D01*
X299621Y-241300D01*
X300014Y-244284D01*
X301166Y-247064D01*
X302998Y-249452D01*
X303002Y-249455D01*
X303592Y-251253D01*
Y-256747D01*
X303002Y-258545D01*
X302998Y-258548D01*
X301166Y-260936D01*
X300014Y-263716D01*
X299621Y-266700D01*
X300014Y-269684D01*
X301166Y-272464D01*
X302998Y-274852D01*
X303002Y-274855D01*
X303592Y-276653D01*
Y-282147D01*
X303002Y-283945D01*
X302998Y-283948D01*
X301166Y-286336D01*
X300014Y-289116D01*
X299621Y-292100D01*
X300014Y-295084D01*
X301166Y-297864D01*
X302998Y-300252D01*
X305386Y-302084D01*
X306169Y-306762D01*
X306048Y-308806D01*
X312946Y-315704D01*
X311150Y-317500D01*
X312946Y-319296D01*
X306048Y-326194D01*
X306169Y-328238D01*
X305386Y-332916D01*
X302998Y-334748D01*
X301166Y-337136D01*
X300014Y-339916D01*
X299621Y-342900D01*
X300014Y-345884D01*
X301166Y-348664D01*
X302998Y-351052D01*
X303002Y-351055D01*
X303592Y-352853D01*
Y-358347D01*
X303002Y-360145D01*
X302998Y-360148D01*
X301166Y-362536D01*
X300014Y-365316D01*
X299621Y-368300D01*
X300014Y-371284D01*
X301166Y-374064D01*
X302998Y-376452D01*
X303002Y-376455D01*
X303592Y-378253D01*
Y-383747D01*
X303002Y-385545D01*
X302998Y-385548D01*
X301166Y-387936D01*
X300930Y-388505D01*
X294755Y-390694D01*
X292333Y-390683D01*
X282006Y-380356D01*
Y-261620D01*
X281744Y-259631D01*
X280976Y-257777D01*
X279755Y-256185D01*
X279755Y-256185D01*
X234035Y-210465D01*
X232443Y-209244D01*
X230589Y-208476D01*
X228600Y-208214D01*
X179960D01*
X179602Y-207748D01*
X179598Y-207745D01*
X179007Y-205947D01*
Y-200453D01*
X179598Y-198655D01*
X179602Y-198652D01*
X181434Y-196264D01*
X182586Y-193484D01*
X182979Y-190500D01*
X182586Y-187516D01*
X181434Y-184736D01*
X179602Y-182348D01*
X179598Y-182345D01*
X179007Y-180547D01*
Y-175053D01*
X179598Y-173255D01*
X179602Y-173252D01*
X181434Y-170864D01*
X182586Y-168084D01*
X182979Y-165100D01*
X182586Y-162116D01*
X181434Y-159336D01*
X179602Y-156948D01*
X179598Y-156945D01*
X179007Y-155147D01*
Y-149653D01*
X179598Y-147855D01*
X179602Y-147852D01*
X181434Y-145464D01*
X182586Y-142684D01*
X182979Y-139700D01*
X182586Y-136716D01*
X181434Y-133936D01*
X179602Y-131548D01*
X179598Y-131545D01*
X179007Y-129747D01*
Y-124253D01*
X179598Y-122455D01*
X179602Y-122452D01*
X181434Y-120064D01*
X182586Y-117284D01*
X182979Y-114300D01*
X182586Y-111316D01*
X181434Y-108536D01*
X179602Y-106148D01*
X179598Y-106145D01*
X179007Y-104347D01*
Y-98853D01*
X179598Y-97055D01*
X179602Y-97052D01*
X181434Y-94664D01*
X182586Y-91884D01*
X182979Y-88900D01*
X182586Y-85916D01*
X181434Y-83136D01*
X179602Y-80748D01*
X179598Y-80745D01*
X179007Y-78947D01*
Y-73453D01*
X179598Y-71655D01*
X179602Y-71652D01*
X181434Y-69264D01*
X182586Y-66484D01*
X182979Y-63500D01*
X182586Y-60516D01*
X181434Y-57736D01*
X180985Y-57150D01*
X182880Y-49530D01*
X182880Y-48259D01*
Y-26670D01*
X147320D01*
Y-48259D01*
X147320Y-49530D01*
X149215Y-57150D01*
X148766Y-57736D01*
X147614Y-60516D01*
X147221Y-63500D01*
X147614Y-66484D01*
X148766Y-69264D01*
X150598Y-71652D01*
X149244Y-78580D01*
X148656Y-79168D01*
X144137Y-78161D01*
X140866Y-76183D01*
X140774Y-75481D01*
X140006Y-73627D01*
X138785Y-72035D01*
X125759Y-59010D01*
X124167Y-57788D01*
X122313Y-57020D01*
X120974Y-56844D01*
X120760Y-56796D01*
Y-52670D01*
X92600D01*
Y-55780D01*
X92495Y-55782D01*
X92354Y-55814D01*
X80291D01*
X80147Y-55782D01*
X79244Y-55760D01*
X78999Y-55740D01*
X78243Y-53915D01*
X76003Y-50996D01*
X73085Y-48757D01*
X69687Y-47350D01*
X66040Y-46870D01*
X62393Y-47350D01*
X58995Y-48757D01*
X56076Y-50996D01*
X55357Y-51175D01*
X47602Y-51549D01*
X46710Y-51210D01*
X46404Y-50976D01*
X43624Y-49824D01*
X40640Y-49431D01*
X37656Y-49824D01*
X34876Y-50976D01*
X34520Y-51248D01*
X42436Y-59164D01*
X38844Y-62756D01*
X30928Y-54840D01*
X30656Y-55196D01*
X29504Y-57976D01*
X29111Y-60960D01*
Y-66040D01*
X29504Y-69024D01*
X30656Y-71804D01*
X30928Y-72159D01*
X38844Y-64244D01*
X42436Y-67836D01*
X34520Y-75752D01*
X34876Y-76024D01*
X37656Y-77176D01*
X40640Y-77569D01*
X43624Y-77176D01*
X46404Y-76024D01*
X46710Y-75790D01*
X47602Y-75451D01*
X55357Y-75825D01*
X56076Y-76004D01*
X58995Y-78243D01*
X62393Y-79650D01*
X66040Y-80131D01*
X69687Y-79650D01*
X73085Y-78243D01*
X76003Y-76003D01*
X78243Y-73085D01*
X78999Y-71260D01*
X79244Y-71240D01*
X80147Y-71218D01*
X80291Y-71186D01*
X84994D01*
X90103Y-73109D01*
X92600Y-74330D01*
Y-81670D01*
X92600Y-81950D01*
Y-97872D01*
X92531Y-98219D01*
X92600Y-103330D01*
X93984Y-110950D01*
X93174Y-112161D01*
X92026Y-114935D01*
X91440Y-117879D01*
Y-120881D01*
X92026Y-123825D01*
X93174Y-126599D01*
X94842Y-129095D01*
X96965Y-131218D01*
X99461Y-132886D01*
X102235Y-134034D01*
X101060Y-141570D01*
X92600D01*
Y-144679D01*
X92495Y-144682D01*
X92354Y-144714D01*
X80291D01*
X80147Y-144682D01*
X79244Y-144660D01*
X78999Y-144640D01*
X78243Y-142815D01*
X76003Y-139896D01*
X73085Y-137657D01*
X69687Y-136250D01*
X66040Y-135770D01*
X62393Y-136250D01*
X58995Y-137657D01*
X56076Y-139896D01*
X55357Y-140075D01*
X47602Y-140449D01*
X46710Y-140110D01*
X46404Y-139876D01*
X43624Y-138724D01*
X40640Y-138331D01*
X37656Y-138724D01*
X34876Y-139876D01*
X34520Y-140148D01*
X42436Y-148064D01*
X38844Y-151656D01*
X30928Y-143741D01*
X30656Y-144096D01*
X29504Y-146876D01*
X29111Y-149860D01*
Y-154940D01*
X29504Y-157924D01*
X30656Y-160704D01*
X30928Y-161059D01*
X38844Y-153144D01*
X42436Y-156736D01*
X34520Y-164652D01*
X34876Y-164924D01*
X37656Y-166076D01*
X40640Y-166469D01*
X43624Y-166076D01*
X46404Y-164924D01*
X46710Y-164690D01*
X47602Y-164351D01*
X55357Y-164725D01*
X56076Y-164904D01*
X58995Y-167143D01*
X62393Y-168550D01*
X66040Y-169030D01*
X69687Y-168550D01*
X73085Y-167143D01*
X76003Y-164904D01*
X78243Y-161985D01*
X78999Y-160160D01*
X79244Y-160140D01*
X80147Y-160118D01*
X80291Y-160086D01*
X84994D01*
X90103Y-162010D01*
X92600Y-163230D01*
Y-170570D01*
X92600Y-170850D01*
Y-191018D01*
X92026Y-192405D01*
X91440Y-195349D01*
Y-198351D01*
X92026Y-201295D01*
X92600Y-202682D01*
Y-223130D01*
X92600D01*
Y-226096D01*
X86282Y-233614D01*
X80291D01*
X80147Y-233582D01*
X79244Y-233560D01*
X78999Y-233540D01*
X78243Y-231715D01*
X76003Y-228797D01*
X73085Y-226557D01*
X69687Y-225150D01*
X66040Y-224669D01*
X62393Y-225150D01*
X58995Y-226557D01*
X56076Y-228797D01*
X55357Y-228975D01*
X47602Y-229349D01*
X46710Y-229010D01*
X46404Y-228776D01*
X43624Y-227624D01*
X40640Y-227231D01*
X37656Y-227624D01*
X34876Y-228776D01*
X34520Y-229048D01*
X42436Y-236964D01*
X38844Y-240556D01*
X30928Y-232640D01*
X30656Y-232996D01*
X29504Y-235776D01*
X29111Y-238760D01*
Y-243840D01*
X29504Y-246824D01*
X30656Y-249604D01*
X30928Y-249959D01*
X38844Y-242044D01*
X42436Y-245636D01*
X34520Y-253552D01*
X34876Y-253824D01*
X37656Y-254976D01*
X40640Y-255369D01*
X43624Y-254976D01*
X46404Y-253824D01*
X46710Y-253590D01*
X47602Y-253251D01*
X55357Y-253625D01*
X56076Y-253804D01*
X58995Y-256043D01*
X62393Y-257450D01*
X66040Y-257931D01*
X69687Y-257450D01*
X73085Y-256043D01*
X77503Y-262147D01*
X52985Y-286665D01*
X51764Y-288257D01*
X50996Y-290111D01*
X50734Y-292100D01*
Y-321029D01*
X50702Y-321173D01*
X50680Y-322076D01*
X50660Y-322321D01*
X48835Y-323077D01*
X45917Y-325317D01*
X43677Y-328235D01*
X42270Y-331633D01*
X41789Y-335280D01*
X42270Y-338927D01*
X43677Y-342325D01*
X45917Y-345243D01*
Y-350717D01*
X43677Y-353635D01*
X42270Y-357033D01*
X41789Y-360680D01*
X42270Y-364327D01*
X43677Y-367725D01*
X45917Y-370644D01*
X46095Y-371363D01*
X46469Y-379118D01*
X46130Y-380010D01*
X45896Y-380316D01*
X44744Y-383096D01*
X44351Y-386080D01*
X44744Y-389064D01*
X45896Y-391844D01*
X46168Y-392200D01*
X54084Y-384284D01*
X57676Y-387876D01*
X49760Y-395792D01*
X50116Y-396064D01*
X52896Y-397216D01*
X55880Y-397609D01*
X60960D01*
X63944Y-397216D01*
X66724Y-396064D01*
X67079Y-395792D01*
X59164Y-387876D01*
X62756Y-384284D01*
X70672Y-392200D01*
X70944Y-391844D01*
X72096Y-389064D01*
X72489Y-386080D01*
X72096Y-383096D01*
X76340Y-375756D01*
X81839Y-375003D01*
X87764Y-380928D01*
X86946Y-382905D01*
X86360Y-385849D01*
Y-388851D01*
X86946Y-391795D01*
X88095Y-394569D01*
X89762Y-397065D01*
X91885Y-399188D01*
X94381Y-400855D01*
X97155Y-402004D01*
X100099Y-402590D01*
X103101D01*
X106045Y-402004D01*
X108819Y-400855D01*
X111315Y-399188D01*
X113438Y-397065D01*
X115105Y-394569D01*
X116254Y-391795D01*
X116840Y-388851D01*
Y-385849D01*
X116254Y-382905D01*
X115105Y-380131D01*
X113438Y-377635D01*
X111499Y-375696D01*
X111278Y-374018D01*
X110126Y-371238D01*
X108294Y-368850D01*
X95039Y-355595D01*
X95349Y-353241D01*
X95349Y-353240D01*
Y-340055D01*
X103569Y-331835D01*
X106810Y-332218D01*
X107927Y-333288D01*
X110558Y-338420D01*
X110855Y-340369D01*
X110490Y-341730D01*
Y-344070D01*
X111096Y-346331D01*
X111557Y-347131D01*
X117584Y-341104D01*
X119380Y-342900D01*
X121176Y-341104D01*
X127203Y-347131D01*
X127664Y-346331D01*
X128270Y-344070D01*
Y-341730D01*
X127664Y-339469D01*
X126494Y-337441D01*
X125701Y-336649D01*
X126280Y-333031D01*
X128374Y-329029D01*
X145771D01*
X146902Y-330368D01*
X149140Y-336649D01*
X148766Y-337136D01*
X147614Y-339916D01*
X147221Y-342900D01*
X147614Y-345884D01*
X148766Y-348664D01*
X150598Y-351052D01*
X152986Y-352884D01*
X153769Y-357562D01*
X153648Y-359606D01*
X160546Y-366504D01*
X158750Y-368300D01*
X160546Y-370096D01*
X153648Y-376994D01*
X153769Y-379038D01*
X152986Y-383716D01*
X150598Y-385548D01*
X148766Y-387936D01*
X147614Y-390716D01*
X147221Y-393700D01*
X147614Y-396684D01*
X148766Y-399464D01*
X150598Y-401852D01*
X152986Y-403684D01*
X155766Y-404836D01*
X158750Y-405229D01*
X171450D01*
X174434Y-404836D01*
X177214Y-403684D01*
X179602Y-401852D01*
X181434Y-399464D01*
X182586Y-396684D01*
X182979Y-393700D01*
X182586Y-390716D01*
X181434Y-387936D01*
X179602Y-385548D01*
X177214Y-383716D01*
X176431Y-379038D01*
X176552Y-376994D01*
X169654Y-370096D01*
X171450Y-368300D01*
X169654Y-366504D01*
X176552Y-359606D01*
X176431Y-357562D01*
X177214Y-352884D01*
X179602Y-351052D01*
X181434Y-348664D01*
X182586Y-345884D01*
X182979Y-342900D01*
X182586Y-339916D01*
X181434Y-337136D01*
X181060Y-336649D01*
X183298Y-330368D01*
X184429Y-329029D01*
X231625D01*
X232311Y-329715D01*
Y-396240D01*
X232704Y-399224D01*
X233856Y-402004D01*
X235688Y-404392D01*
X280876Y-449580D01*
X280665Y-451717D01*
X278128Y-457200D01*
X63500D01*
Y-466848D01*
X62880Y-467555D01*
X55880Y-470868D01*
X55702Y-470765D01*
X52472Y-469900D01*
X49128D01*
X45898Y-470765D01*
X43780Y-471988D01*
X52596Y-480804D01*
X49004Y-484396D01*
X40188Y-475580D01*
X38965Y-477698D01*
X38100Y-480928D01*
Y-484272D01*
X38965Y-487502D01*
X39051Y-487651D01*
X38903Y-487874D01*
X38787Y-488455D01*
X38578Y-489011D01*
X38592Y-489437D01*
X38509Y-489856D01*
X38624Y-490438D01*
X38644Y-491030D01*
X38819Y-491419D01*
X38903Y-491838D01*
X39032Y-492032D01*
X39241Y-495290D01*
X39206Y-496855D01*
X39107Y-498132D01*
X39061Y-498471D01*
X39047Y-498546D01*
X38903Y-498762D01*
X38819Y-499181D01*
X38644Y-499570D01*
X38624Y-500163D01*
X38509Y-500744D01*
X38592Y-501163D01*
X38578Y-501589D01*
X38787Y-502145D01*
X38903Y-502726D01*
X39051Y-502949D01*
X38965Y-503098D01*
X38100Y-506328D01*
Y-509672D01*
X38965Y-512902D01*
X39051Y-513051D01*
X38903Y-513274D01*
X38787Y-513855D01*
X38578Y-514411D01*
X38592Y-514837D01*
X38509Y-515256D01*
X38624Y-515838D01*
X38644Y-516430D01*
X38819Y-516819D01*
X38903Y-517238D01*
X39032Y-517432D01*
X39241Y-520690D01*
X39206Y-522255D01*
X39107Y-523532D01*
X39061Y-523871D01*
X39047Y-523946D01*
X38903Y-524162D01*
X38819Y-524581D01*
X38644Y-524970D01*
X38624Y-525563D01*
X38509Y-526144D01*
X38592Y-526563D01*
X38578Y-526989D01*
X38787Y-527545D01*
X38903Y-528126D01*
X39051Y-528349D01*
X38965Y-528498D01*
X38100Y-531728D01*
Y-535072D01*
X38965Y-538302D01*
X39051Y-538451D01*
X38903Y-538674D01*
X38787Y-539255D01*
X38578Y-539811D01*
X38592Y-540237D01*
X38509Y-540656D01*
X38624Y-541237D01*
X38644Y-541830D01*
X38819Y-542219D01*
X38903Y-542638D01*
X39032Y-542832D01*
X39241Y-546090D01*
X39206Y-547655D01*
X39107Y-548932D01*
X39061Y-549271D01*
X39047Y-549346D01*
X38903Y-549562D01*
X38819Y-549981D01*
X38644Y-550370D01*
X38624Y-550962D01*
X38509Y-551544D01*
X38592Y-551963D01*
X38578Y-552389D01*
X38787Y-552945D01*
X38903Y-553526D01*
X39051Y-553749D01*
X38965Y-553898D01*
X38100Y-557128D01*
Y-560472D01*
X38965Y-563702D01*
X40188Y-565820D01*
X49004Y-557004D01*
X52596Y-560596D01*
X43780Y-569412D01*
X45898Y-570634D01*
X49128Y-571500D01*
X52472D01*
X55702Y-570634D01*
X55880Y-570532D01*
X62880Y-573845D01*
X63500Y-574552D01*
Y-596900D01*
X2540D01*
Y0D01*
X510540D01*
Y-450632D01*
D02*
G37*
G36*
X115152Y-98347D02*
X114706Y-98728D01*
X114314Y-99362D01*
X113973Y-100252D01*
X113685Y-101395D01*
X113449Y-102792D01*
X113266Y-104443D01*
X113105Y-107560D01*
X113304Y-110682D01*
X113403Y-111201D01*
X113518Y-111614D01*
X113647Y-111922D01*
X113792Y-112124D01*
X99568D01*
X99713Y-111922D01*
X99842Y-111614D01*
X99957Y-111201D01*
X100056Y-110682D01*
X100140Y-110058D01*
X100261Y-108493D01*
X100271Y-108035D01*
X99911Y-102792D01*
X99675Y-101395D01*
X99387Y-100252D01*
X99046Y-99362D01*
X98653Y-98728D01*
X98208Y-98347D01*
X97711Y-98219D01*
X115649D01*
X115152Y-98347D01*
D02*
G37*
G36*
X154998Y-119356D02*
X154926Y-118878D01*
X154712Y-118450D01*
X154356Y-118073D01*
X153856Y-117746D01*
X153214Y-117469D01*
X152429Y-117243D01*
X151501Y-117066D01*
X150431Y-116941D01*
X149218Y-116865D01*
X147862Y-116840D01*
Y-111760D01*
X149218Y-111735D01*
X151501Y-111533D01*
X152429Y-111357D01*
X153214Y-111131D01*
X153856Y-110854D01*
X154356Y-110527D01*
X154712Y-110149D01*
X154926Y-109722D01*
X154998Y-109244D01*
Y-119356D01*
D02*
G37*
G36*
Y-144756D02*
X154926Y-144278D01*
X154712Y-143850D01*
X154356Y-143473D01*
X153856Y-143146D01*
X153214Y-142869D01*
X152429Y-142643D01*
X151501Y-142466D01*
X150431Y-142341D01*
X149218Y-142265D01*
X147862Y-142240D01*
Y-137160D01*
X149218Y-137135D01*
X151501Y-136933D01*
X152429Y-136757D01*
X153214Y-136531D01*
X153856Y-136254D01*
X154356Y-135927D01*
X154712Y-135549D01*
X154926Y-135122D01*
X154998Y-134644D01*
Y-144756D01*
D02*
G37*
G36*
X74554Y-147810D02*
X74720Y-148240D01*
X74996Y-148620D01*
X75382Y-148949D01*
X75880Y-149227D01*
X76487Y-149455D01*
X77205Y-149632D01*
X78034Y-149759D01*
X78973Y-149835D01*
X80022Y-149860D01*
Y-154940D01*
X78973Y-154965D01*
X78034Y-155041D01*
X77205Y-155168D01*
X76487Y-155345D01*
X75880Y-155573D01*
X75382Y-155851D01*
X74996Y-156180D01*
X74720Y-156560D01*
X74554Y-156990D01*
X74499Y-157471D01*
Y-147329D01*
X74554Y-147810D01*
D02*
G37*
G36*
X115670Y-147803D02*
X115823Y-148234D01*
X116079Y-148615D01*
X116437Y-148946D01*
X116897Y-149225D01*
X117459Y-149454D01*
X118123Y-149631D01*
X118890Y-149758D01*
X119759Y-149835D01*
X120730Y-149860D01*
Y-154940D01*
X119759Y-154965D01*
X118890Y-155042D01*
X118123Y-155169D01*
X117459Y-155346D01*
X116897Y-155575D01*
X116437Y-155854D01*
X116079Y-156185D01*
X115823Y-156566D01*
X115670Y-156997D01*
X115619Y-157480D01*
Y-147320D01*
X115670Y-147803D01*
D02*
G37*
G36*
X97741Y-157480D02*
X97690Y-156997D01*
X97537Y-156566D01*
X97281Y-156185D01*
X96923Y-155854D01*
X96463Y-155575D01*
X95901Y-155346D01*
X95237Y-155169D01*
X94470Y-155042D01*
X93602Y-154965D01*
X92631Y-154940D01*
Y-149860D01*
X93602Y-149835D01*
X94470Y-149758D01*
X95237Y-149631D01*
X95901Y-149454D01*
X96463Y-149225D01*
X96923Y-148946D01*
X97281Y-148615D01*
X97537Y-148234D01*
X97690Y-147803D01*
X97741Y-147320D01*
Y-157480D01*
D02*
G37*
G36*
X154998Y-170156D02*
X154926Y-169678D01*
X154712Y-169251D01*
X154356Y-168873D01*
X153856Y-168546D01*
X153214Y-168269D01*
X152429Y-168043D01*
X151501Y-167866D01*
X150431Y-167741D01*
X149218Y-167665D01*
X147862Y-167640D01*
Y-162560D01*
X149218Y-162535D01*
X151501Y-162334D01*
X152429Y-162157D01*
X153214Y-161931D01*
X153856Y-161654D01*
X154356Y-161327D01*
X154712Y-160949D01*
X154926Y-160522D01*
X154998Y-160044D01*
Y-170156D01*
D02*
G37*
G36*
X115649Y-187120D02*
X115429Y-187202D01*
X115231Y-187450D01*
X115057Y-187864D01*
X114906Y-188443D01*
X114778Y-189188D01*
X114674Y-190098D01*
X114535Y-192414D01*
X114488Y-195392D01*
X101788D01*
X101769Y-193815D01*
X101480Y-190080D01*
X101307Y-189167D01*
X101096Y-188419D01*
X100846Y-187838D01*
X100558Y-187422D01*
X100231Y-187173D01*
X99866Y-187089D01*
X115649Y-187120D01*
D02*
G37*
G36*
X155222Y-195780D02*
X154627Y-195326D01*
X154005Y-194921D01*
X153355Y-194563D01*
X152679Y-194252D01*
X151975Y-193990D01*
X151244Y-193775D01*
X150487Y-193608D01*
X149702Y-193489D01*
X148890Y-193417D01*
X148051Y-193393D01*
X147729Y-188313D01*
X149058Y-188288D01*
X151286Y-188087D01*
X152185Y-187911D01*
X152940Y-187684D01*
X153553Y-187407D01*
X154021Y-187080D01*
X154347Y-186703D01*
X154529Y-186275D01*
X154567Y-185797D01*
X155222Y-195780D01*
D02*
G37*
G36*
X375945Y-215166D02*
X376022Y-216029D01*
X376149Y-216791D01*
X376326Y-217452D01*
X376555Y-218011D01*
X376834Y-218468D01*
X377165Y-218823D01*
X377546Y-219077D01*
X377977Y-219230D01*
X378460Y-219280D01*
X368300D01*
X368783Y-219230D01*
X369214Y-219077D01*
X369595Y-218823D01*
X369926Y-218468D01*
X370205Y-218011D01*
X370434Y-217452D01*
X370611Y-216791D01*
X370738Y-216029D01*
X370815Y-215166D01*
X370840Y-214200D01*
X375920D01*
X375945Y-215166D01*
D02*
G37*
G36*
X364411Y-230720D02*
X364360Y-230598D01*
X364207Y-230489D01*
X363953Y-230393D01*
X363598Y-230310D01*
X363140Y-230240D01*
X361921Y-230138D01*
X359330Y-230080D01*
Y-225000D01*
X360300Y-224975D01*
X361167Y-224898D01*
X361933Y-224771D01*
X362597Y-224594D01*
X363159Y-224365D01*
X363619Y-224086D01*
X363977Y-223755D01*
X364234Y-223374D01*
X364388Y-222943D01*
X364441Y-222460D01*
X364411Y-230720D01*
D02*
G37*
G36*
X415392Y-224743D02*
X415547Y-225174D01*
X415804Y-225555D01*
X416162Y-225886D01*
X416623Y-226165D01*
X417184Y-226394D01*
X417848Y-226571D01*
X418614Y-226698D01*
X419481Y-226775D01*
X420449Y-226800D01*
Y-231880D01*
X415369Y-230720D01*
X415339Y-224260D01*
X415392Y-224743D01*
D02*
G37*
G36*
X447999Y-234401D02*
X447886Y-233922D01*
X447649Y-233493D01*
X447289Y-233115D01*
X446806Y-232787D01*
X446199Y-232510D01*
X445469Y-232283D01*
X444616Y-232107D01*
X443640Y-231981D01*
X442540Y-231905D01*
X441317Y-231880D01*
X440868Y-226800D01*
X442072Y-226775D01*
X444084Y-226573D01*
X444892Y-226396D01*
X445567Y-226169D01*
X446110Y-225891D01*
X446521Y-225562D01*
X446800Y-225184D01*
X446947Y-224754D01*
X446961Y-224274D01*
X447999Y-234401D01*
D02*
G37*
G36*
X410997Y-230740D02*
X410566Y-230893D01*
X410185Y-231149D01*
X409854Y-231507D01*
X409575Y-231967D01*
X409346Y-232529D01*
X409169Y-233193D01*
X409042Y-233960D01*
X408965Y-234828D01*
X408940Y-235800D01*
X403860D01*
X403835Y-234828D01*
X403758Y-233960D01*
X403631Y-233193D01*
X403454Y-232529D01*
X403225Y-231967D01*
X402946Y-231507D01*
X402615Y-231149D01*
X402234Y-230893D01*
X401803Y-230740D01*
X401320Y-230689D01*
X411480D01*
X410997Y-230740D01*
D02*
G37*
G36*
X175279Y-236722D02*
X175509Y-237150D01*
X175893Y-237527D01*
X176431Y-237854D01*
X177122Y-238131D01*
X177966Y-238357D01*
X178964Y-238533D01*
X180116Y-238659D01*
X182880Y-238760D01*
Y-243840D01*
X181421Y-243865D01*
X178964Y-244067D01*
X177966Y-244243D01*
X177122Y-244469D01*
X176431Y-244746D01*
X175893Y-245073D01*
X175509Y-245450D01*
X175279Y-245878D01*
X175202Y-246356D01*
Y-236244D01*
X175279Y-236722D01*
D02*
G37*
G36*
X74554Y-236710D02*
X74720Y-237140D01*
X74996Y-237520D01*
X75382Y-237849D01*
X75880Y-238127D01*
X76487Y-238355D01*
X77205Y-238532D01*
X78034Y-238659D01*
X78973Y-238735D01*
X80022Y-238760D01*
Y-243840D01*
X78973Y-243865D01*
X78034Y-243941D01*
X77205Y-244068D01*
X76487Y-244245D01*
X75880Y-244473D01*
X75382Y-244751D01*
X74996Y-245080D01*
X74720Y-245460D01*
X74554Y-245890D01*
X74499Y-246371D01*
Y-236229D01*
X74554Y-236710D01*
D02*
G37*
G36*
X115670Y-236703D02*
X115823Y-237134D01*
X116079Y-237515D01*
X116437Y-237846D01*
X116897Y-238125D01*
X117459Y-238354D01*
X118123Y-238531D01*
X118890Y-238658D01*
X119759Y-238735D01*
X120730Y-238760D01*
Y-243840D01*
X119759Y-243865D01*
X118890Y-243942D01*
X118123Y-244069D01*
X117459Y-244246D01*
X116897Y-244475D01*
X116437Y-244754D01*
X116079Y-245085D01*
X115823Y-245466D01*
X115670Y-245897D01*
X115619Y-246380D01*
Y-236220D01*
X115670Y-236703D01*
D02*
G37*
G36*
X97741Y-246380D02*
X97690Y-245897D01*
X97537Y-245466D01*
X97281Y-245085D01*
X96923Y-244754D01*
X96463Y-244475D01*
X95901Y-244246D01*
X95237Y-244069D01*
X94470Y-243942D01*
X93602Y-243865D01*
X92631Y-243840D01*
Y-238760D01*
X93602Y-238735D01*
X94470Y-238658D01*
X95237Y-238531D01*
X95901Y-238354D01*
X96463Y-238125D01*
X96923Y-237846D01*
X97281Y-237515D01*
X97537Y-237134D01*
X97690Y-236703D01*
X97741Y-236220D01*
Y-246380D01*
D02*
G37*
G36*
X327674Y-262122D02*
X327888Y-262549D01*
X328244Y-262927D01*
X328744Y-263254D01*
X329386Y-263531D01*
X330171Y-263757D01*
X331099Y-263934D01*
X332169Y-264059D01*
X333382Y-264135D01*
X334738Y-264160D01*
Y-269240D01*
X333382Y-269265D01*
X331099Y-269466D01*
X330171Y-269643D01*
X329386Y-269869D01*
X328744Y-270146D01*
X328244Y-270473D01*
X327888Y-270851D01*
X327674Y-271278D01*
X327602Y-271756D01*
Y-261644D01*
X327674Y-262122D01*
D02*
G37*
G36*
X126347Y-297018D02*
X126218Y-297326D01*
X126103Y-297739D01*
X126004Y-298258D01*
X125920Y-298882D01*
X125799Y-300447D01*
X125730Y-303587D01*
X113030D01*
X113022Y-302435D01*
X112756Y-298258D01*
X112657Y-297739D01*
X112542Y-297326D01*
X112413Y-297018D01*
X112268Y-296816D01*
X126492D01*
X126347Y-297018D01*
D02*
G37*
G36*
X60985Y-322347D02*
X61061Y-323286D01*
X61188Y-324115D01*
X61365Y-324833D01*
X61593Y-325440D01*
X61871Y-325938D01*
X62200Y-326324D01*
X62580Y-326600D01*
X63010Y-326766D01*
X63491Y-326822D01*
X53349D01*
X53830Y-326766D01*
X54260Y-326600D01*
X54640Y-326324D01*
X54969Y-325938D01*
X55247Y-325440D01*
X55475Y-324833D01*
X55652Y-324115D01*
X55779Y-323286D01*
X55855Y-322347D01*
X55880Y-321298D01*
X60960D01*
X60985Y-322347D01*
D02*
G37*
G36*
X373380Y-265529D02*
X446736D01*
X447615Y-266203D01*
X451013Y-267610D01*
X454660Y-268090D01*
X459740D01*
X462273Y-267757D01*
X471071Y-276555D01*
Y-324557D01*
X470531Y-325331D01*
X463451Y-329316D01*
X463387Y-329290D01*
X459740Y-328810D01*
X454660D01*
X451013Y-329290D01*
X447615Y-330697D01*
X444697Y-332937D01*
X442949Y-335214D01*
X402871D01*
X401124Y-332937D01*
X398205Y-330697D01*
X394807Y-329290D01*
X391160Y-328810D01*
X386080D01*
X382433Y-329290D01*
X379035Y-330697D01*
X376116Y-332937D01*
X374369Y-335214D01*
X350520D01*
X348531Y-335476D01*
X346677Y-336244D01*
X345085Y-337465D01*
X345085Y-337465D01*
X342667Y-339883D01*
X340245Y-339894D01*
X334070Y-337705D01*
X333834Y-337136D01*
X332002Y-334748D01*
X329614Y-332916D01*
X328831Y-328238D01*
X328952Y-326194D01*
X322054Y-319296D01*
X323850Y-317500D01*
X322054Y-315704D01*
X328952Y-308806D01*
X328831Y-306762D01*
X329614Y-302084D01*
X332002Y-300252D01*
X332360Y-299786D01*
X347980D01*
X349969Y-299524D01*
X351823Y-298756D01*
X353415Y-297535D01*
X362195Y-288755D01*
X363416Y-287163D01*
X364184Y-285309D01*
X364315Y-284315D01*
X364446Y-283320D01*
X364446Y-283320D01*
Y-269829D01*
X372066Y-265356D01*
X373380Y-265529D01*
D02*
G37*
G36*
X447392Y-373361D02*
X447328Y-372882D01*
X447140Y-372453D01*
X446825Y-372075D01*
X446384Y-371747D01*
X445817Y-371470D01*
X445124Y-371243D01*
X444305Y-371067D01*
X443360Y-370941D01*
X442289Y-370865D01*
X441092Y-370840D01*
Y-365760D01*
X442289Y-365735D01*
X444305Y-365533D01*
X445124Y-365357D01*
X445817Y-365130D01*
X446384Y-364853D01*
X446825Y-364525D01*
X447140Y-364147D01*
X447328Y-363718D01*
X447392Y-363239D01*
Y-373361D01*
D02*
G37*
G36*
X398492Y-363718D02*
X398680Y-364147D01*
X398995Y-364525D01*
X399436Y-364853D01*
X400003Y-365130D01*
X400696Y-365357D01*
X401515Y-365533D01*
X402460Y-365659D01*
X403531Y-365735D01*
X404728Y-365760D01*
Y-370840D01*
X403531Y-370865D01*
X401515Y-371067D01*
X400696Y-371243D01*
X400003Y-371470D01*
X399436Y-371747D01*
X398995Y-372075D01*
X398680Y-372453D01*
X398492Y-372882D01*
X398428Y-373361D01*
Y-363239D01*
X398492Y-363718D01*
D02*
G37*
G36*
X378811Y-373361D02*
X378749Y-372882D01*
X378560Y-372453D01*
X378245Y-372075D01*
X377804Y-371747D01*
X377237Y-371470D01*
X376544Y-371243D01*
X375725Y-371067D01*
X374780Y-370941D01*
X373709Y-370865D01*
X372512Y-370840D01*
Y-365760D01*
X373709Y-365735D01*
X375725Y-365533D01*
X376544Y-365357D01*
X377237Y-365130D01*
X377804Y-364853D01*
X378245Y-364525D01*
X378560Y-364147D01*
X378749Y-363718D01*
X378811Y-363239D01*
Y-373361D01*
D02*
G37*
G36*
X464167Y-464658D02*
X464038Y-464966D01*
X463923Y-465379D01*
X463824Y-465898D01*
X463741Y-466522D01*
X463619Y-468087D01*
X463576Y-470019D01*
X463824Y-473902D01*
X463923Y-474421D01*
X464038Y-474834D01*
X464167Y-475142D01*
X464312Y-475344D01*
X450088D01*
X450233Y-475142D01*
X450362Y-474834D01*
X450477Y-474421D01*
X450576Y-473902D01*
X450659Y-473278D01*
X450781Y-471713D01*
X450824Y-469781D01*
X450576Y-465898D01*
X450477Y-465379D01*
X450362Y-464966D01*
X450233Y-464658D01*
X450088Y-464456D01*
X464312D01*
X464167Y-464658D01*
D02*
G37*
G36*
X489567Y-490058D02*
X489438Y-490366D01*
X489323Y-490779D01*
X489224Y-491298D01*
X489141Y-491922D01*
X489019Y-493487D01*
X488976Y-495419D01*
X489224Y-499302D01*
X489323Y-499821D01*
X489438Y-500234D01*
X489567Y-500542D01*
X489712Y-500744D01*
X475488D01*
X475633Y-500542D01*
X475762Y-500234D01*
X475877Y-499821D01*
X475976Y-499302D01*
X476059Y-498678D01*
X476181Y-497113D01*
X476224Y-495181D01*
X475976Y-491298D01*
X475877Y-490779D01*
X475762Y-490366D01*
X475633Y-490058D01*
X475488Y-489856D01*
X489712D01*
X489567Y-490058D01*
D02*
G37*
G36*
X464167D02*
X464038Y-490366D01*
X463923Y-490779D01*
X463824Y-491298D01*
X463741Y-491922D01*
X463619Y-493487D01*
X463576Y-495419D01*
X463824Y-499302D01*
X463923Y-499821D01*
X464038Y-500234D01*
X464167Y-500542D01*
X464312Y-500744D01*
X450088D01*
X450233Y-500542D01*
X450362Y-500234D01*
X450477Y-499821D01*
X450576Y-499302D01*
X450659Y-498678D01*
X450781Y-497113D01*
X450824Y-495181D01*
X450576Y-491298D01*
X450477Y-490779D01*
X450362Y-490366D01*
X450233Y-490058D01*
X450088Y-489856D01*
X464312D01*
X464167Y-490058D01*
D02*
G37*
G36*
X83167D02*
X83038Y-490366D01*
X82923Y-490779D01*
X82824Y-491298D01*
X82740Y-491922D01*
X82619Y-493487D01*
X82576Y-495419D01*
X82824Y-499302D01*
X82923Y-499821D01*
X83038Y-500234D01*
X83167Y-500542D01*
X83312Y-500744D01*
X69088D01*
X69233Y-500542D01*
X69362Y-500234D01*
X69477Y-499821D01*
X69576Y-499302D01*
X69660Y-498678D01*
X69781Y-497113D01*
X69824Y-495181D01*
X69576Y-491298D01*
X69477Y-490779D01*
X69362Y-490366D01*
X69233Y-490058D01*
X69088Y-489856D01*
X83312D01*
X83167Y-490058D01*
D02*
G37*
G36*
X57767D02*
X57638Y-490366D01*
X57523Y-490779D01*
X57424Y-491298D01*
X57340Y-491922D01*
X57219Y-493487D01*
X57176Y-495419D01*
X57424Y-499302D01*
X57523Y-499821D01*
X57638Y-500234D01*
X57767Y-500542D01*
X57912Y-500744D01*
X43688D01*
X43833Y-500542D01*
X43962Y-500234D01*
X44077Y-499821D01*
X44176Y-499302D01*
X44260Y-498678D01*
X44381Y-497113D01*
X44424Y-495181D01*
X44176Y-491298D01*
X44077Y-490779D01*
X43962Y-490366D01*
X43833Y-490058D01*
X43688Y-489856D01*
X57912D01*
X57767Y-490058D01*
D02*
G37*
G36*
X489567Y-515458D02*
X489438Y-515766D01*
X489323Y-516179D01*
X489224Y-516698D01*
X489141Y-517322D01*
X489019Y-518887D01*
X488976Y-520819D01*
X489224Y-524702D01*
X489323Y-525221D01*
X489438Y-525634D01*
X489567Y-525942D01*
X489712Y-526144D01*
X475488D01*
X475633Y-525942D01*
X475762Y-525634D01*
X475877Y-525221D01*
X475976Y-524702D01*
X476059Y-524078D01*
X476181Y-522513D01*
X476224Y-520581D01*
X475976Y-516698D01*
X475877Y-516179D01*
X475762Y-515766D01*
X475633Y-515458D01*
X475488Y-515256D01*
X489712D01*
X489567Y-515458D01*
D02*
G37*
G36*
X464167D02*
X464038Y-515766D01*
X463923Y-516179D01*
X463824Y-516698D01*
X463741Y-517322D01*
X463619Y-518887D01*
X463576Y-520819D01*
X463824Y-524702D01*
X463923Y-525221D01*
X464038Y-525634D01*
X464167Y-525942D01*
X464312Y-526144D01*
X450088D01*
X450233Y-525942D01*
X450362Y-525634D01*
X450477Y-525221D01*
X450576Y-524702D01*
X450659Y-524078D01*
X450781Y-522513D01*
X450824Y-520581D01*
X450576Y-516698D01*
X450477Y-516179D01*
X450362Y-515766D01*
X450233Y-515458D01*
X450088Y-515256D01*
X464312D01*
X464167Y-515458D01*
D02*
G37*
G36*
X83167D02*
X83038Y-515766D01*
X82923Y-516179D01*
X82824Y-516698D01*
X82740Y-517322D01*
X82619Y-518887D01*
X82576Y-520819D01*
X82824Y-524702D01*
X82923Y-525221D01*
X83038Y-525634D01*
X83167Y-525942D01*
X83312Y-526144D01*
X69088D01*
X69233Y-525942D01*
X69362Y-525634D01*
X69477Y-525221D01*
X69576Y-524702D01*
X69660Y-524078D01*
X69781Y-522513D01*
X69824Y-520581D01*
X69576Y-516698D01*
X69477Y-516179D01*
X69362Y-515766D01*
X69233Y-515458D01*
X69088Y-515256D01*
X83312D01*
X83167Y-515458D01*
D02*
G37*
G36*
X57767D02*
X57638Y-515766D01*
X57523Y-516179D01*
X57424Y-516698D01*
X57340Y-517322D01*
X57219Y-518887D01*
X57176Y-520819D01*
X57424Y-524702D01*
X57523Y-525221D01*
X57638Y-525634D01*
X57767Y-525942D01*
X57912Y-526144D01*
X43688D01*
X43833Y-525942D01*
X43962Y-525634D01*
X44077Y-525221D01*
X44176Y-524702D01*
X44260Y-524078D01*
X44381Y-522513D01*
X44424Y-520581D01*
X44176Y-516698D01*
X44077Y-516179D01*
X43962Y-515766D01*
X43833Y-515458D01*
X43688Y-515256D01*
X57912D01*
X57767Y-515458D01*
D02*
G37*
G36*
X489567Y-540858D02*
X489438Y-541166D01*
X489323Y-541579D01*
X489224Y-542098D01*
X489141Y-542722D01*
X489019Y-544287D01*
X488976Y-546219D01*
X489224Y-550102D01*
X489323Y-550621D01*
X489438Y-551034D01*
X489567Y-551342D01*
X489712Y-551544D01*
X475488D01*
X475633Y-551342D01*
X475762Y-551034D01*
X475877Y-550621D01*
X475976Y-550102D01*
X476059Y-549478D01*
X476181Y-547913D01*
X476224Y-545981D01*
X475976Y-542098D01*
X475877Y-541579D01*
X475762Y-541166D01*
X475633Y-540858D01*
X475488Y-540656D01*
X489712D01*
X489567Y-540858D01*
D02*
G37*
G36*
X464167D02*
X464038Y-541166D01*
X463923Y-541579D01*
X463824Y-542098D01*
X463741Y-542722D01*
X463619Y-544287D01*
X463576Y-546219D01*
X463824Y-550102D01*
X463923Y-550621D01*
X464038Y-551034D01*
X464167Y-551342D01*
X464312Y-551544D01*
X450088D01*
X450233Y-551342D01*
X450362Y-551034D01*
X450477Y-550621D01*
X450576Y-550102D01*
X450659Y-549478D01*
X450781Y-547913D01*
X450824Y-545981D01*
X450576Y-542098D01*
X450477Y-541579D01*
X450362Y-541166D01*
X450233Y-540858D01*
X450088Y-540656D01*
X464312D01*
X464167Y-540858D01*
D02*
G37*
G36*
X83167D02*
X83038Y-541166D01*
X82923Y-541579D01*
X82824Y-542098D01*
X82740Y-542722D01*
X82619Y-544287D01*
X82576Y-546219D01*
X82824Y-550102D01*
X82923Y-550621D01*
X83038Y-551034D01*
X83167Y-551342D01*
X83312Y-551544D01*
X69088D01*
X69233Y-551342D01*
X69362Y-551034D01*
X69477Y-550621D01*
X69576Y-550102D01*
X69660Y-549478D01*
X69781Y-547913D01*
X69824Y-545981D01*
X69576Y-542098D01*
X69477Y-541579D01*
X69362Y-541166D01*
X69233Y-540858D01*
X69088Y-540656D01*
X83312D01*
X83167Y-540858D01*
D02*
G37*
G36*
X57767D02*
X57638Y-541166D01*
X57523Y-541579D01*
X57424Y-542098D01*
X57340Y-542722D01*
X57219Y-544287D01*
X57176Y-546219D01*
X57424Y-550102D01*
X57523Y-550621D01*
X57638Y-551034D01*
X57767Y-551342D01*
X57912Y-551544D01*
X43688D01*
X43833Y-551342D01*
X43962Y-551034D01*
X44077Y-550621D01*
X44176Y-550102D01*
X44260Y-549478D01*
X44381Y-547913D01*
X44424Y-545981D01*
X44176Y-542098D01*
X44077Y-541579D01*
X43962Y-541166D01*
X43833Y-540858D01*
X43688Y-540656D01*
X57912D01*
X57767Y-540858D01*
D02*
G37*
G36*
X486134Y-568325D02*
X478636Y-576877D01*
X469444Y-568109D01*
X470243Y-567291D01*
X472069Y-565182D01*
X472487Y-564595D01*
X472810Y-564066D01*
X473037Y-563594D01*
X473169Y-563179D01*
X473206Y-562823D01*
X473147Y-562524D01*
X486134Y-568325D01*
D02*
G37*
%LPC*%
G36*
X265430Y-71155D02*
X234955D01*
Y-79299D01*
X233680Y-86390D01*
X227335Y-86390D01*
X203205D01*
Y-195580D01*
X227335D01*
X233680Y-195580D01*
X241300Y-195580D01*
X265430D01*
Y-71155D01*
D02*
G37*
G36*
X303294Y-313236D02*
X302489Y-315179D01*
X302183Y-317500D01*
X302489Y-319821D01*
X303294Y-321764D01*
X307558Y-317500D01*
X303294Y-313236D01*
D02*
G37*
G36*
X119380Y-346492D02*
X115149Y-350723D01*
X115949Y-351184D01*
X118210Y-351790D01*
X120550D01*
X122811Y-351184D01*
X123611Y-350723D01*
X119380Y-346492D01*
D02*
G37*
G36*
X214740Y-342802D02*
X210042Y-347500D01*
X214740Y-352198D01*
Y-342802D01*
D02*
G37*
G36*
X191660Y-342802D02*
Y-352198D01*
X196358Y-347500D01*
X191660Y-342802D01*
D02*
G37*
G36*
X211148Y-339210D02*
X195252D01*
X201746Y-345704D01*
X199950Y-347500D01*
X201746Y-349296D01*
X195252Y-355790D01*
X211148D01*
X204654Y-349296D01*
X206450Y-347500D01*
X204654Y-345704D01*
X211148Y-339210D01*
D02*
G37*
G36*
X179306Y-364036D02*
X175042Y-368300D01*
X179306Y-372564D01*
X180111Y-370621D01*
X180417Y-368300D01*
X180111Y-365979D01*
X179306Y-364036D01*
D02*
G37*
G36*
X150894D02*
X150089Y-365979D01*
X149783Y-368300D01*
X150089Y-370621D01*
X150894Y-372564D01*
X155158Y-368300D01*
X150894Y-364036D01*
D02*
G37*
G36*
X458872Y-444500D02*
X455528D01*
X452298Y-445365D01*
X450180Y-446588D01*
X457200Y-453608D01*
X464220Y-446588D01*
X462102Y-445365D01*
X458872Y-444500D01*
D02*
G37*
G36*
X331706Y-313236D02*
X327442Y-317500D01*
X331706Y-321764D01*
X332511Y-319821D01*
X332817Y-317500D01*
X332511Y-315179D01*
X331706Y-313236D01*
D02*
G37*
%LPD*%
D10*
X226060Y-187960D02*
X210825D01*
X218442D01*
Y-177803D01*
X226060D01*
X210825D01*
Y-172725D02*
X213364D01*
Y-170186D01*
X210825D01*
Y-172725D01*
X226060Y-160029D02*
X210825D01*
Y-152411D01*
X213364Y-149872D01*
X215903D01*
X218442Y-152411D01*
Y-160029D01*
Y-152411D01*
X220982Y-149872D01*
X223521D01*
X226060Y-152411D01*
Y-160029D01*
X220982Y-144794D02*
X213364D01*
X210825Y-142255D01*
Y-134637D01*
X220982D01*
X223521Y-127020D02*
X220982D01*
Y-129559D01*
Y-124480D01*
Y-127020D01*
X213364D01*
X210825Y-124480D01*
Y-109246D02*
Y-114324D01*
X213364Y-116863D01*
X218442D01*
X220982Y-114324D01*
Y-109246D01*
X218442Y-106706D01*
X215903D01*
Y-116863D01*
X220982Y-101628D02*
X210825D01*
X215903D01*
X218442Y-99089D01*
X220982Y-96550D01*
Y-94010D01*
X242575Y-187960D02*
X257810D01*
Y-180343D01*
X255271Y-177803D01*
X250193D01*
X247653Y-180343D01*
Y-187960D01*
Y-182882D02*
X242575Y-177803D01*
X257810Y-162568D02*
Y-172725D01*
X242575D01*
Y-162568D01*
X250193Y-172725D02*
Y-167647D01*
X257810Y-157490D02*
X247653D01*
X242575Y-152411D01*
X247653Y-147333D01*
X257810D01*
X252732Y-142255D02*
Y-139716D01*
X250193D01*
Y-142255D01*
X252732D01*
X245114D02*
Y-139716D01*
X242575D01*
Y-142255D01*
X245114D01*
X242575Y-114324D02*
Y-109246D01*
Y-111785D01*
X257810D01*
X255271Y-114324D01*
X242575Y-101628D02*
X245114D01*
Y-99089D01*
X242575D01*
Y-101628D01*
X255271Y-88932D02*
X257810Y-86393D01*
Y-81314D01*
X255271Y-78775D01*
X245114D01*
X242575Y-81314D01*
Y-86393D01*
X245114Y-88932D01*
X255271D01*
D17*
X100142Y-385892D02*
X101600Y-387350D01*
X80100Y-356960D02*
X100142Y-377002D01*
Y-385892D02*
Y-377002D01*
X76381Y-360680D02*
X83820Y-353241D01*
X59392Y-361652D02*
X75902D01*
X58420Y-360680D02*
X59392Y-361652D01*
X50800Y-508000D02*
Y-482600D01*
Y-533400D02*
Y-508000D01*
Y-558800D02*
Y-533400D01*
X457200Y-482600D02*
Y-457200D01*
X76200Y-508000D02*
Y-482600D01*
X89990Y-584200D02*
X462333D01*
X77658Y-571869D02*
X89990Y-584200D01*
X462333D02*
X478790Y-567743D01*
X76200Y-558800D02*
X77658Y-560258D01*
Y-571869D02*
Y-560258D01*
X482600Y-560862D02*
Y-558800D01*
Y-533400D01*
X478790Y-567743D02*
Y-564672D01*
X482600Y-560862D01*
Y-508000D02*
Y-482600D01*
Y-533400D02*
Y-508000D01*
X457200D02*
Y-482600D01*
Y-533400D02*
Y-508000D01*
Y-558800D02*
Y-533400D01*
X76200D02*
Y-508000D01*
Y-558800D02*
Y-533400D01*
X345440Y-441960D02*
X365760Y-421640D01*
X289560Y-441960D02*
X345440D01*
X243840Y-396240D02*
X289560Y-441960D01*
X243840Y-396240D02*
Y-324939D01*
X106680Y-119380D02*
Y-92500D01*
X457200Y-391353D02*
X458575Y-392728D01*
X454853Y-393700D02*
X457200Y-391353D01*
X106680Y-196850D02*
X108138Y-195392D01*
Y-181856D01*
X119380Y-317500D02*
Y-289560D01*
Y-317500D02*
X165100D01*
X101600D02*
X119380D01*
X83820Y-335280D02*
X101600Y-317500D01*
X165100D02*
X213360D01*
X83820Y-353241D02*
Y-335280D01*
X406400Y-254000D02*
X457200D01*
X373380D02*
X406400D01*
X465792Y-254972D02*
X482600Y-271780D01*
Y-383540D02*
Y-271780D01*
X457200Y-254000D02*
X458172Y-254972D01*
X465792D01*
X458575Y-392728D02*
X473412D01*
X482600Y-383540D01*
X390967Y-393700D02*
X454853D01*
X365760Y-410683D02*
X377663Y-398780D01*
X379625D01*
X365760Y-421640D02*
Y-410683D01*
X384705Y-393700D02*
X388620D01*
X379625Y-398780D02*
X384705Y-393700D01*
X213360Y-317500D02*
X236401D01*
X243840Y-324939D01*
D18*
X457200Y-457200D02*
D03*
X101600Y-387350D02*
D03*
Y-558800D02*
D03*
X127000D02*
D03*
X152400D02*
D03*
X177800D02*
D03*
X203200D02*
D03*
X228600D02*
D03*
X254000D02*
D03*
X279400D02*
D03*
X304800D02*
D03*
X330200D02*
D03*
X355600D02*
D03*
X381000D02*
D03*
X406400D02*
D03*
X431800D02*
D03*
X101600Y-533400D02*
D03*
X127000D02*
D03*
X152400D02*
D03*
X177800D02*
D03*
X203200D02*
D03*
X228600D02*
D03*
X254000D02*
D03*
X279400D02*
D03*
X304800D02*
D03*
X330200D02*
D03*
X355600D02*
D03*
X381000D02*
D03*
X406400D02*
D03*
X431800D02*
D03*
X101600Y-508000D02*
D03*
X127000D02*
D03*
X152400D02*
D03*
X177800D02*
D03*
X203200D02*
D03*
X228600D02*
D03*
X254000D02*
D03*
X279400D02*
D03*
X304800D02*
D03*
X330200D02*
D03*
X355600D02*
D03*
X381000D02*
D03*
X406400D02*
D03*
X431800D02*
D03*
Y-482600D02*
D03*
X406400D02*
D03*
X381000D02*
D03*
X355600D02*
D03*
X330200D02*
D03*
X304800D02*
D03*
X279400D02*
D03*
X254000D02*
D03*
X228600D02*
D03*
X203200D02*
D03*
X177800D02*
D03*
X152400D02*
D03*
X127000D02*
D03*
X101600D02*
D03*
X457200D02*
D03*
Y-508000D02*
D03*
Y-533400D02*
D03*
Y-558800D02*
D03*
X482600Y-482600D02*
D03*
Y-508000D02*
D03*
Y-533400D02*
D03*
Y-558800D02*
D03*
X76200D02*
D03*
Y-533400D02*
D03*
Y-508000D02*
D03*
Y-482600D02*
D03*
X50800Y-558800D02*
D03*
Y-533400D02*
D03*
Y-508000D02*
D03*
Y-482600D02*
D03*
X119380Y-289560D02*
D03*
X106680Y-196850D02*
D03*
Y-119380D02*
D03*
D19*
X119380Y-317500D02*
D03*
Y-342900D02*
D03*
D20*
X165100Y-38100D02*
D03*
D21*
Y-63500D02*
D03*
Y-88900D02*
D03*
Y-114300D02*
D03*
Y-139700D02*
D03*
Y-165100D02*
D03*
Y-190500D02*
D03*
Y-215900D02*
D03*
Y-241300D02*
D03*
Y-266700D02*
D03*
Y-292100D02*
D03*
Y-317500D02*
D03*
Y-342900D02*
D03*
Y-368300D02*
D03*
Y-393700D02*
D03*
X317500Y-38100D02*
D03*
Y-63500D02*
D03*
Y-88900D02*
D03*
Y-114300D02*
D03*
Y-139700D02*
D03*
Y-165100D02*
D03*
Y-190500D02*
D03*
Y-215900D02*
D03*
Y-241300D02*
D03*
Y-266700D02*
D03*
Y-292100D02*
D03*
Y-317500D02*
D03*
Y-342900D02*
D03*
Y-368300D02*
D03*
Y-393700D02*
D03*
D22*
X457200Y-63500D02*
D03*
Y-88900D02*
D03*
Y-419100D02*
D03*
Y-393700D02*
D03*
Y-368300D02*
D03*
Y-342900D02*
D03*
X58420Y-386080D02*
D03*
Y-360680D02*
D03*
Y-335280D02*
D03*
X457200Y-254000D02*
D03*
Y-228600D02*
D03*
Y-203200D02*
D03*
Y-177800D02*
D03*
X388620Y-419100D02*
D03*
Y-393700D02*
D03*
Y-368300D02*
D03*
Y-342900D02*
D03*
D23*
X40640Y-63500D02*
D03*
X66040D02*
D03*
X40640Y-241300D02*
D03*
X66040D02*
D03*
X40640Y-152400D02*
D03*
X66040D02*
D03*
D24*
X106680D02*
D03*
Y-181400D02*
D03*
Y-241300D02*
D03*
Y-212300D02*
D03*
X203200Y-317500D02*
D03*
Y-347500D02*
D03*
X373380Y-225000D02*
D03*
Y-254000D02*
D03*
X406400Y-225000D02*
D03*
Y-254000D02*
D03*
X106680Y-63500D02*
D03*
Y-92500D02*
D03*
D25*
X434230Y-89010D02*
X457090D01*
X373380Y-149860D02*
X434230Y-89010D01*
X373380Y-227540D02*
Y-149860D01*
X457090Y-89010D02*
X457200Y-88900D01*
X347980Y-292100D02*
X356760Y-283320D01*
X317500Y-292100D02*
X347980D01*
X356760Y-283320D02*
Y-245094D01*
X337820Y-266700D02*
X346600Y-257920D01*
X317500Y-266700D02*
X337820D01*
X457200Y-342900D02*
X458379D01*
X388620D02*
X457200D01*
X350520D02*
X388620D01*
X139700Y-248920D02*
Y-196850D01*
X145697Y-190853D01*
X164747D01*
X120324Y-64444D02*
X133350Y-77470D01*
Y-101600D02*
X146050Y-114300D01*
X133350Y-101600D02*
Y-77470D01*
X146050Y-114300D02*
X165100D01*
X350520Y-406400D02*
Y-375920D01*
X297180Y-424180D02*
X332740D01*
X350520Y-406400D01*
X274320Y-383540D02*
X302260Y-411480D01*
X325826D02*
X340360Y-396946D01*
X302260Y-411480D02*
X325826D01*
X259080Y-386080D02*
X297180Y-424180D01*
X274320Y-383540D02*
Y-261620D01*
X259080Y-386080D02*
Y-271780D01*
X165100Y-215900D02*
X228600D01*
X274320Y-261620D01*
X124460Y-152400D02*
X137160Y-139700D01*
X65706Y-152400D02*
X124460D01*
X137160Y-139700D02*
X165100D01*
X64363Y-241300D02*
X123588D01*
X126564Y-238324D02*
Y-183316D01*
X123588Y-241300D02*
X126564Y-238324D01*
X122275Y-266345D02*
X139700Y-248920D01*
X84175Y-266345D02*
X122275D01*
X58420Y-292100D02*
X84175Y-266345D01*
X58420Y-335280D02*
Y-292100D01*
X228600Y-241300D02*
X259080Y-271780D01*
X388620Y-368300D02*
X464922D01*
X406400Y-237054D02*
Y-227540D01*
X361824Y-240030D02*
X403424D01*
X356760Y-245094D02*
X361824Y-240030D01*
X403424D02*
X406400Y-237054D01*
X340360Y-396946D02*
Y-353060D01*
X350520Y-375920D02*
X358140Y-368300D01*
X388620D01*
X340360Y-353060D02*
X350520Y-342900D01*
X107693Y-64444D02*
X120324D01*
X105589Y-62341D02*
X107693Y-64444D01*
X66038Y-63500D02*
X106680D01*
X346600Y-257920D02*
Y-235060D01*
X354120Y-227540D02*
X373380D01*
X346600Y-235060D02*
X354120Y-227540D01*
X406400D02*
X408200Y-229340D01*
X452860D01*
X454660Y-231140D01*
X164747Y-190853D02*
X165100Y-190500D01*
X126564Y-183316D02*
X144780Y-165100D01*
X165100D01*
X177800Y-241300D02*
X228600D01*
M02*
