M48
;Layer_Color=9474304
;FILE_FORMAT=4:4
METRIC,LZ
;TYPE=PLATED
T01F00S00C0.6350
T02F00S00C0.7112
T03F00S00C1.0160
%
T01
X001651Y-003937
Y-003683
Y-003429
Y-003175
Y-002921
Y-002667
Y-002413
Y-002159
Y-001905
Y-001651
Y-001397
Y-001143
Y-000889
Y-000635
Y-000381
X003175
Y-000635
Y-000889
Y-001143
Y-001397
Y-001651
Y-001905
Y-002159
Y-002413
Y-002667
Y-002921
Y-003175
Y-003429
Y-003683
Y-003937
T02
X0011938Y-003429
Y-003175
T03
X002286Y-005588
X00254
X002794
X003048
X003302
X003556
X00381
X004064
X004318
Y-005334
X004064
X00381
X003556
X003302
X003048
X002794
X00254
X002286
Y-00508
X00254
X002794
X003048
X003302
X003556
X00381
X004064
X004318
Y-004826
X004064
X00381
X003556
X003302
X003048
X002794
X00254
X002286
X0038862Y-004191
X004572
Y-004572
Y-004826
Y-00508
Y-005334
Y-005588
X004826
Y-005334
Y-00508
Y-004826
X002032
Y-00508
Y-005334
Y-005588
X001778
X001524
X00127
X001016
Y-005334
X00127
X001524
X001778
Y-00508
X001524
X00127
X001016
Y-004826
X00127
X001524
X001778
X000762
Y-00508
Y-005334
Y-005588
X000508
Y-005334
Y-00508
Y-004826
X0005842Y-0038608
Y-0036068
Y-0033528
X001016Y-0038735
X0011938Y-0028956
X0006604Y-002413
X0004064
Y-001524
X0006604
X0010668Y-0011938
Y-0019685
X0006604Y-000635
X0004064
X004572
Y-000889
Y-001778
Y-002032
Y-002286
Y-00254
Y-003429
Y-003683
Y-003937
X0038862
Y-003683
Y-003429
M30
