G04*
G04 #@! TF.GenerationSoftware,Altium Limited,Altium Designer,24.5.1 (21)*
G04*
G04 Layer_Color=8388736*
%FSLAX44Y44*%
%MOMM*%
G71*
G04*
G04 #@! TF.SameCoordinates,4CF24129-FD56-4E2D-9210-4E3AEFEF1F0E*
G04*
G04*
G04 #@! TF.FilePolarity,Negative*
G04*
G01*
G75*
%ADD11C,2.2352*%
%ADD12C,1.4732*%
%ADD13R,2.7432X1.4732*%
%ADD14O,2.7432X1.4732*%
%ADD15O,2.4892X1.9812*%
%ADD16O,1.9812X2.4892*%
D11*
X457200Y-457200D02*
D03*
X101600Y-387350D02*
D03*
Y-558800D02*
D03*
X127000D02*
D03*
X152400D02*
D03*
X177800D02*
D03*
X203200D02*
D03*
X228600D02*
D03*
X254000D02*
D03*
X279400D02*
D03*
X304800D02*
D03*
X330200D02*
D03*
X355600D02*
D03*
X381000D02*
D03*
X406400D02*
D03*
X431800D02*
D03*
X101600Y-533400D02*
D03*
X127000D02*
D03*
X152400D02*
D03*
X177800D02*
D03*
X203200D02*
D03*
X228600D02*
D03*
X254000D02*
D03*
X279400D02*
D03*
X304800D02*
D03*
X330200D02*
D03*
X355600D02*
D03*
X381000D02*
D03*
X406400D02*
D03*
X431800D02*
D03*
X101600Y-508000D02*
D03*
X127000D02*
D03*
X152400D02*
D03*
X177800D02*
D03*
X203200D02*
D03*
X228600D02*
D03*
X254000D02*
D03*
X279400D02*
D03*
X304800D02*
D03*
X330200D02*
D03*
X355600D02*
D03*
X381000D02*
D03*
X406400D02*
D03*
X431800D02*
D03*
Y-482600D02*
D03*
X406400D02*
D03*
X381000D02*
D03*
X355600D02*
D03*
X330200D02*
D03*
X304800D02*
D03*
X279400D02*
D03*
X254000D02*
D03*
X228600D02*
D03*
X203200D02*
D03*
X177800D02*
D03*
X152400D02*
D03*
X127000D02*
D03*
X101600D02*
D03*
X457200D02*
D03*
Y-508000D02*
D03*
Y-533400D02*
D03*
Y-558800D02*
D03*
X482600Y-482600D02*
D03*
Y-508000D02*
D03*
Y-533400D02*
D03*
Y-558800D02*
D03*
X76200D02*
D03*
Y-533400D02*
D03*
Y-508000D02*
D03*
Y-482600D02*
D03*
X50800Y-558800D02*
D03*
Y-533400D02*
D03*
Y-508000D02*
D03*
Y-482600D02*
D03*
X119380Y-289560D02*
D03*
X106680Y-196850D02*
D03*
Y-119380D02*
D03*
D12*
X119380Y-317500D02*
D03*
Y-342900D02*
D03*
D13*
X165100Y-38100D02*
D03*
D14*
Y-63500D02*
D03*
Y-88900D02*
D03*
Y-114300D02*
D03*
Y-139700D02*
D03*
Y-165100D02*
D03*
Y-190500D02*
D03*
Y-215900D02*
D03*
Y-241300D02*
D03*
Y-266700D02*
D03*
Y-292100D02*
D03*
Y-317500D02*
D03*
Y-342900D02*
D03*
Y-368300D02*
D03*
Y-393700D02*
D03*
X317500Y-38100D02*
D03*
Y-63500D02*
D03*
Y-88900D02*
D03*
Y-114300D02*
D03*
Y-139700D02*
D03*
Y-165100D02*
D03*
Y-190500D02*
D03*
Y-215900D02*
D03*
Y-241300D02*
D03*
Y-266700D02*
D03*
Y-292100D02*
D03*
Y-317500D02*
D03*
Y-342900D02*
D03*
Y-368300D02*
D03*
Y-393700D02*
D03*
D15*
X457200Y-63500D02*
D03*
Y-88900D02*
D03*
Y-419100D02*
D03*
Y-393700D02*
D03*
Y-368300D02*
D03*
Y-342900D02*
D03*
X58420Y-386080D02*
D03*
Y-360680D02*
D03*
Y-335280D02*
D03*
X457200Y-254000D02*
D03*
Y-228600D02*
D03*
Y-203200D02*
D03*
Y-177800D02*
D03*
X388620Y-419100D02*
D03*
Y-393700D02*
D03*
Y-368300D02*
D03*
Y-342900D02*
D03*
D16*
X40640Y-63500D02*
D03*
X66040D02*
D03*
X40640Y-241300D02*
D03*
X66040D02*
D03*
X40640Y-152400D02*
D03*
X66040D02*
D03*
M02*
